<?xml version="1.0" encoding="utf-8" ?>
<svg baseProfile="full" height="100%" version="1.1" viewBox="0,0,1000,240" width="100%" xmlns="http://www.w3.org/2000/svg" xmlns:ev="http://www.w3.org/2001/xml-events" xmlns:xlink="http://www.w3.org/1999/xlink"><defs /><rect fill="white" height="240" width="1000" x="0" y="0" /><path d="M0,0 M305.4951477050781,48.41795349121094 L305.4631652832031,48.26781463623047 L305.4200439453125,48.175785064697266 L305.3692932128906,48.30389404296875 L305.3110656738281,48.831607818603516 L305.2199401855469,49.81850051879883 L305.0760192871094,51.24413299560547 L304.8826904296875,53.068336486816406 L304.651611328125,55.25457000732422 L304.3868408203125,57.74782180786133 L304.11126708984375,60.49766159057617 L303.8346862792969,63.42660140991211 L303.56085205078125,66.39246368408203 L303.3091125488281,69.21328735351562 L303.09478759765625,71.69508361816406 L302.9173583984375,73.66461181640625 L302.84259033203125,74.9189224243164 L302.903076171875,75.35932159423828 L303.1049499511719,75.01251220703125 L303.34918212890625,74.31678771972656 L303.5464782714844,73.67221069335938 M306.4033508300781,47.9809684753418 L306.453857421875,47.458221435546875 L306.5380554199219,46.86235809326172 L306.64141845703125,46.486942291259766 L306.77423095703125,46.677490234375 L306.9804382324219,47.488548278808594 L307.3218078613281,48.84595489501953 L307.8707580566406,50.56013488769531 L308.6782531738281,52.45522689819336 L309.75958251953125,54.28687286376953 L311.1186218261719,55.81801223754883 L312.7178039550781,56.86132049560547 L314.4619140625,57.283966064453125 L316.260986328125,57.03073501586914 L318.03662109375,56.1242790222168 L319.7105712890625,54.660125732421875 L321.21600341796875,52.81514358520508 L322.4894104003906,50.801612854003906 L323.4429931640625,48.852455139160156 L324.05047607421875,47.17135238647461 L324.3574523925781,45.90724182128906 L324.41632080078125,45.15257263183594 L324.30224609375,45.0 L324.05596923828125,45.50548553466797 L323.6811828613281,46.71006393432617 L323.1939392089844,48.57599639892578 L322.6494140625,50.98606872558594 L322.1058349609375,53.76826477050781 L321.6352844238281,56.76685333251953 L321.2725524902344,59.82451629638672 L321.01947021484375,62.80902099609375 L320.8580322265625,65.5732421875 L320.8031921386719,67.96614837646484 L320.8594970703125,69.8485336303711 L321.02752685546875,71.15876007080078 L321.2268981933594,71.90338134765625 L321.38525390625,72.21675872802734 M327.47216796875,62.38625717163086 L327.4700927734375,62.29597473144531 L327.4443359375,62.226497650146484 L327.3847351074219,62.29698944091797 L327.2986755371094,62.65601348876953 L327.2226257324219,63.3750114440918 L327.2048034667969,64.42626190185547 L327.302978515625,65.6959457397461 L327.5889892578125,67.04154968261719 L328.1201477050781,68.30973052978516 L328.9439392089844,69.3775863647461 L330.0520935058594,70.13624572753906 L331.3746337890625,70.48707580566406 L332.8376770019531,70.37189483642578 L334.3539733886719,69.78663635253906 L335.86480712890625,68.78630065917969 L337.3155517578125,67.4839096069336 L338.6261901855469,66.03726196289062 L339.68048095703125,64.61132049560547 L340.4328308105469,63.37260055541992 L340.8511962890625,62.45058059692383 L340.9945983886719,61.954689025878906 L340.8931579589844,61.946475982666016 L340.5840759277344,62.48042678833008 L340.0599365234375,63.57289505004883 L339.373779296875,65.19772338867188 L338.5850830078125,67.27057647705078 L337.8061828613281,69.68978881835938 L337.09716796875,72.32025146484375 L336.5260009765625,75.04560852050781 L336.0998840332031,77.74602508544922 L335.80169677734375,80.29598999023438 L335.5970458984375,82.57242584228516 L335.46533203125,84.45836639404297 L335.3804931640625,85.87550354003906 L335.33905029296875,86.76087188720703 L335.3303527832031,87.18769073486328 M367.9813232421875,62.67233657836914 L368.0370788574219,62.23997497558594 L367.99786376953125,61.57379913330078 L367.74395751953125,60.79599380493164 L367.14208984375,60.11836624145508 L366.1590270996094,59.623741149902344 L364.8118896484375,59.364585876464844 L363.1900634765625,59.34393310546875 L361.4539794921875,59.55110549926758 L359.832763671875,59.9467658996582 L358.53631591796875,60.47537612915039 L357.7646484375,61.1041374206543 L357.6186828613281,61.80128860473633 L358.13641357421875,62.546958923339844 L359.32305908203125,63.315223693847656 L361.10638427734375,64.08041381835938 L363.3273620605469,64.83224487304688 L365.7873840332031,65.57431030273438 L368.2181396484375,66.31204986572266 L370.38751220703125,67.04607391357422 L372.1295166015625,67.75967407226562 L373.326171875,68.42005157470703 L373.9040222167969,68.99858856201172 L373.8605651855469,69.47419738769531 L373.2105712890625,69.84527587890625 L372.0440368652344,70.11849212646484 L370.46856689453125,70.2868423461914 L368.62384033203125,70.33895874023438 L366.63067626953125,70.26811218261719 L364.6378479003906,70.08477020263672 L362.757568359375,69.8132095336914 L361.09100341796875,69.47827911376953 L359.73797607421875,69.06805419921875 L358.7925109863281,68.5896987915039 L358.28509521484375,68.07633972167969 L358.12359619140625,67.649658203125 L358.1534729003906,67.38044738769531 M377.8179931640625,60.1220817565918 L377.834716796875,60.17279052734375 L377.84674072265625,60.36750793457031 L377.8313293457031,60.80812072753906 L377.7589111328125,61.56790542602539 L377.6170654296875,62.65749740600586 L377.4256286621094,64.04179382324219 L377.23895263671875,65.6438980102539 L377.14251708984375,67.340576171875 L377.21783447265625,68.99579620361328 L377.52508544921875,70.4637222290039 L378.0702209472656,71.6043701171875 L378.8327331542969,72.30824279785156 L379.78216552734375,72.52135467529297 L380.87725830078125,72.22758483886719 L382.06304931640625,71.48120880126953 L383.26611328125,70.37998962402344 L384.3857727050781,69.04302978515625 L385.3172302246094,67.59757232666016 L386.0036315917969,66.18385314941406 L386.4237365722656,64.92771911621094 L386.61590576171875,63.946746826171875 L386.6337890625,63.32280731201172 L386.54034423828125,63.101768493652344 L386.37060546875,63.30200958251953 L386.1650390625,63.92068862915039 L385.9803466796875,64.92086791992188 L385.8941345214844,66.2048568725586 L386.0085144042969,67.61570739746094 L386.4327697753906,68.97276306152344 L387.248046875,70.11331939697266 L388.46734619140625,70.91082763671875 L390.0419006347656,71.28654479980469 L391.8238525390625,71.18907928466797 L393.642333984375,70.6027603149414 L395.31658935546875,69.56812286376953 L396.70123291015625,68.17645263671875 L397.68524169921875,66.55438995361328 L398.24444580078125,64.84565734863281 L398.39520263671875,63.17768478393555 L398.214111328125,61.66594314575195 L397.8182373046875,60.42155075073242 L397.331298828125,59.5129280090332 L396.9149169921875,58.971126556396484 L396.65814208984375,58.7327995300293 M403.72711181640625,67.9272232055664 L404.1343994140625,67.63915252685547 L404.8290710449219,67.09782409667969 L405.7298889160156,66.31258392333984 L406.6424560546875,65.38615417480469 L407.46710205078125,64.37862396240234 L408.1224365234375,63.35563278198242 L408.52752685546875,62.345394134521484 L408.6387023925781,61.4068603515625 L408.39825439453125,60.598751068115234 L407.7767639160156,59.99924850463867 L406.78997802734375,59.67005920410156 L405.5035400390625,59.667972564697266 L404.0058288574219,60.0189094543457 L402.46490478515625,60.71883010864258 L401.0607604980469,61.72469711303711 L399.97381591796875,62.96335220336914 L399.356689453125,64.33778381347656 L399.3165283203125,65.73910522460938 L399.8577880859375,67.06206512451172 L401.0784606933594,68.21270751953125 L402.93896484375,69.1219482421875 L405.27838134765625,69.75579833984375 L407.39337158203125,70.11992645263672 L408.83612060546875,70.27552795410156 M415.37298583984375,67.85972595214844 L415.3773498535156,67.86764526367188 L415.4571533203125,67.87920379638672 L415.70587158203125,67.86876678466797 L416.2231140136719,67.79741668701172 L417.0623779296875,67.59884643554688 L418.20635986328125,67.24209594726562 L419.5643005371094,66.7140121459961 L420.99853515625,66.02429962158203 L422.355712890625,65.19831848144531 L423.4952697753906,64.29299926757812 L424.2958984375,63.35009765625 L424.6778564453125,62.44365692138672 L424.59637451171875,61.648677825927734 L424.0543212890625,61.04153060913086 L423.09588623046875,60.68977737426758 L421.80255126953125,60.665771484375 L420.29254150390625,60.98651885986328 L418.72943115234375,61.64131164550781 L417.28436279296875,62.57600784301758 L416.13836669921875,63.715877532958984 L415.4339294433594,64.96186065673828 L415.27374267578125,66.23882293701172 L415.70367431640625,67.44732666015625 L416.73760986328125,68.49747467041016 L418.330810546875,69.3087387084961 L420.3900146484375,69.82402038574219 L422.7554931640625,70.0207748413086 L425.3083801269531,69.85517120361328 L427.8609619140625,69.31085968017578 L430.25054931640625,68.43125915527344 L432.0635070800781,67.54820251464844 L433.14178466796875,66.899658203125 M435.7471923828125,46.27367401123047 L435.7413635253906,46.195125579833984 L435.74688720703125,46.285369873046875 L435.77337646484375,46.743324279785156 L435.81085205078125,47.737911224365234 L435.84112548828125,49.25267791748047 L435.86328125,51.19163513183594 L435.86614990234375,53.4109992980957 L435.8497009277344,55.78257751464844 L435.83056640625,58.18280029296875 L435.801025390625,60.50390625 L435.76910400390625,62.63717269897461 L435.72271728515625,64.47930908203125 L435.62353515625,65.9537582397461 L435.37969970703125,66.97847747802734 L435.09136962890625,67.55499267578125 L434.83782958984375,67.7848129272461 M427.78753662109375,59.02174758911133 L427.91009521484375,58.91970443725586 L428.3310546875,58.805824279785156 L429.1932678222656,58.722862243652344 L430.5623474121094,58.73043441772461 L432.3560791015625,58.8251838684082 L434.4454345703125,58.98152160644531 L436.662353515625,59.168968200683594 L438.9011535644531,59.35519027709961 L441.0203552246094,59.493621826171875 L442.9160461425781,59.566707611083984 L444.30035400390625,59.58625411987305 L445.0980224609375,59.576316833496094 M463.3109130859375,45.20018005371094 L463.3407897949219,45.174774169921875 L463.36065673828125,45.30551528930664 L463.3504943847656,45.75547409057617 L463.28326416015625,46.6630859375 L463.14996337890625,48.04606628417969 L462.9688720703125,49.86224365234375 L462.7630310058594,52.03858947753906 L462.5557861328125,54.508384704589844 L462.38433837890625,57.18524169921875 L462.26898193359375,59.965694427490234 L462.2122802734375,62.70686721801758 L462.2216796875,65.25508117675781 L462.2850646972656,67.45068359375 L462.3843688964844,69.18466186523438 L462.48040771484375,70.31564331054688 L462.5475158691406,70.89159393310547 M469.419677734375,61.30863571166992 L469.42303466796875,61.26866149902344 L469.4171142578125,61.2957878112793 L469.3908996582031,61.4964485168457 L469.33367919921875,61.981651306152344 L469.24468994140625,62.77451705932617 L469.14227294921875,63.84285354614258 L469.0355224609375,65.08402252197266 L468.96868896484375,66.36798095703125 L468.96551513671875,67.54576873779297 L469.02899169921875,68.49366760253906 L469.1145324707031,69.10548400878906 L469.1878662109375,69.40237426757812 M469.5391540527344,51.738502502441406 L469.5376281738281,51.635135650634766 L469.5673828125,51.51789093017578 L469.61456298828125,51.42372131347656 L469.6651611328125,51.38958740234375 M479.54156494140625,49.11313247680664 L479.48944091796875,49.291908264160156 L479.39324951171875,49.78361511230469 L479.2364501953125,50.698482513427734 L479.0330810546875,52.06413650512695 L478.78167724609375,53.838768005371094 L478.48431396484375,55.94987487792969 L478.16845703125,58.29911804199219 L477.8773193359375,60.767555236816406 L477.6378173828125,63.19050598144531 L477.4879150390625,65.40787506103516 L477.4228820800781,67.29900360107422 L477.42279052734375,68.73656463623047 L477.4654541015625,69.64854431152344 L477.51226806640625,70.03278350830078 L477.5425109863281,70.05937957763672 L477.55426025390625,69.932861328125 M473.25140380859375,61.94851303100586 L473.1746826171875,61.830745697021484 L473.147216796875,61.68806076049805 L473.316162109375,61.567535400390625 L473.86859130859375,61.51107406616211 L474.92132568359375,61.48819351196289 L476.49383544921875,61.458351135253906 L478.53717041015625,61.371524810791016 L480.85693359375,61.21155548095703 L483.198486328125,60.989017486572266 L485.0419921875,60.77564239501953 L486.1568603515625,60.6267204284668 M489.4354248046875,48.07407760620117 L489.5542297363281,48.098243713378906 L489.70294189453125,48.31513595581055 L489.81878662109375,48.875099182128906 L489.81976318359375,49.89741897583008 L489.691162109375,51.39500427246094 L489.4749755859375,53.3012580871582 L489.2249450683594,55.49983215332031 L488.9889831542969,57.884124755859375 L488.81817626953125,60.33218765258789 L488.7143859863281,62.720706939697266 L488.6700744628906,64.90876007080078 L488.6768798828125,66.73832702636719 L488.70086669921875,68.07798767089844 L488.71856689453125,68.89787292480469 L488.7317810058594,69.28118896484375 L488.7313232421875,69.3890151977539 M486.62109375,62.2619743347168 L486.65264892578125,62.04898452758789 L486.8079833984375,61.76885986328125 L487.16278076171875,61.498046875 L487.80902099609375,61.32186508178711 L488.81207275390625,61.21200942993164 L490.20428466796875,61.10630416870117 L491.94183349609375,60.92886734008789 L493.9534606933594,60.5915641784668 L496.04278564453125,60.04641342163086 L498.0190734863281,59.29425048828125 L499.5126953125,58.57671356201172 L500.390625,58.06687927246094 M500.9417724609375,50.59393310546875 L500.925537109375,50.282958984375 L500.89093017578125,49.9190559387207 L500.827880859375,49.68954086303711 L500.7296447753906,49.83415985107422 L500.58953857421875,50.447357177734375 L500.39447021484375,51.56196594238281 L500.1451110839844,53.11589813232422 L499.8619384765625,55.03338623046875 L499.58782958984375,57.18499755859375 L499.3713684082031,59.432437896728516 L499.234619140625,61.647403717041016 L499.1785583496094,63.704551696777344 L499.2090759277344,65.49224090576172 L499.3086853027344,66.9399185180664 L499.5146484375,67.97991943359375 L499.8433532714844,68.60246276855469 L500.27276611328125,68.83085632324219 L500.66973876953125,68.813720703125 L500.95184326171875,68.70426177978516 M504.8277893066406,66.75454711914062 L505.0633544921875,66.74403381347656 L505.6107482910156,66.655029296875 L506.5162658691406,66.42640686035156 L507.7229309082031,66.00447845458984 L509.124755859375,65.39595031738281 L510.584716796875,64.62651824951172 L511.9508056640625,63.74065399169922 L513.1030883789062,62.799522399902344 L513.8814697265625,61.85169219970703 L514.1969604492188,60.955421447753906 L513.9932861328125,60.189048767089844 L513.2694091796875,59.64302444458008 L512.0694580078125,59.393165588378906 L510.5028991699219,59.509437561035156 L508.7098388671875,59.9940185546875 L506.9230651855469,60.82395553588867 L505.3804931640625,61.92072296142578 L504.3244934082031,63.19999694824219 L503.93328857421875,64.55043029785156 L504.30523681640625,65.86372375488281 L505.45855712890625,67.01878356933594 L507.31561279296875,67.93634033203125 L509.7073974609375,68.57096099853516 L512.477783203125,68.93909454345703 L515.3748779296875,69.09552764892578 L518.1339111328125,69.09904479980469 L520.2401123046875,69.0347671508789 L521.4876708984375,68.96611785888672 M536.920166015625,47.79214096069336 L537.047119140625,47.79151916503906 L537.1890258789062,47.94579315185547 L537.2803344726562,48.40141677856445 L537.2557373046875,49.28044128417969 L537.155029296875,50.60687255859375 L537.0142822265625,52.34874725341797 L536.8731079101562,54.427101135253906 L536.7440795898438,56.75231170654297 L536.623291015625,59.204185485839844 L536.52294921875,61.641151428222656 L536.4627685546875,63.89042663574219 L536.4393310546875,65.78694152832031 L536.428955078125,67.19707489013672 L536.439453125,68.05693817138672 L536.47802734375,68.34780883789062 L536.6018676757812,68.10201263427734 L536.8744506835938,67.36821746826172 L537.3615112304688,66.23649597167969 L538.0631103515625,64.83162689208984 L538.9901123046875,63.301231384277344 L540.1025390625,61.79256820678711 L541.3575439453125,60.432861328125 L542.6886596679688,59.326602935791016 L544.0491943359375,58.56122589111328 L545.3565673828125,58.199615478515625 L546.555419921875,58.26636505126953 L547.5809326171875,58.76190185546875 L548.3966064453125,59.65070343017578 L548.9676513671875,60.87530517578125 L549.3224487304688,62.34105682373047 L549.504150390625,63.914100646972656 L549.62353515625,65.4371337890625 L549.7747192382812,66.7599868774414 L550.0294189453125,67.77570343017578 L550.302978515625,68.41316223144531 L550.5205688476562,68.71910858154297 M561.537109375,62.73942947387695 L561.6285400390625,62.203182220458984 L561.6174926757812,61.38352584838867 L561.3427734375,60.44963455200195 L560.66455078125,59.67740249633789 L559.586181640625,59.17336654663086 L558.197998046875,59.004371643066406 L556.636962890625,59.17988586425781 L555.0611572265625,59.70286178588867 L553.6171875,60.542903900146484 L552.4525756835938,61.62130355834961 L551.7139892578125,62.84416961669922 L551.5252685546875,64.09922790527344 L551.9556274414062,65.25548553466797 L553.0078735351562,66.17684936523438 L554.5930786132812,66.74718475341797 L556.5394897460938,66.89368438720703 L558.6439208984375,66.6094741821289 L560.6671752929688,65.93962097167969 L562.3905029296875,64.97079467773438 L563.6622924804688,63.83483123779297 L564.398193359375,62.657989501953125 L564.6146240234375,61.55923843383789 L564.433837890625,60.625553131103516 L564.0108642578125,59.906158447265625 L563.5213012695312,59.42021179199219 L563.100830078125,59.19011306762695 L562.7957763671875,59.19046401977539 L562.678466796875,59.396217346191406 L562.7801513671875,59.7460823059082 L563.0972290039062,60.1634635925293 L563.4778442382812,60.515281677246094 L563.7864990234375,60.741172790527344 M568.102294921875,58.14250564575195 L568.06884765625,58.10286331176758 L568.0179443359375,58.172401428222656 L567.9632568359375,58.473548889160156 L567.91943359375,59.10685348510742 L567.8807373046875,60.05049133300781 L567.8692626953125,61.214664459228516 L567.8942260742188,62.470237731933594 L567.984375,63.68830490112305 L568.1585083007812,64.74701690673828 L568.398193359375,65.55533599853516 L568.6445922851562,66.01673126220703 L568.901611328125,66.08444213867188 L569.1768188476562,65.72637176513672 L569.5196533203125,64.96556091308594 L569.9867553710938,63.88239288330078 L570.60986328125,62.62587356567383 L571.3790283203125,61.344791412353516 L572.27978515625,60.1983642578125 L573.241455078125,59.28496551513672 L574.2071533203125,58.668514251708984 L575.1112060546875,58.37813949584961 L575.912353515625,58.434566497802734 L576.5931396484375,58.83478927612305 L577.129638671875,59.561126708984375 L577.5008544921875,60.563621520996094 L577.7437133789062,61.75823211669922 L577.898681640625,63.03901672363281 L578.06201171875,64.3032455444336 L578.310302734375,65.44369506835938 L578.669677734375,66.37445831298828 L579.0230712890625,67.00048828125 L579.284912109375,67.32428741455078 M581.811767578125,65.75859832763672 L582.0438842773438,65.67061614990234 L582.543212890625,65.48858642578125 L583.352294921875,65.1810302734375 L584.4389038085938,64.73995971679688 L585.7403564453125,64.156494140625 L587.1212158203125,63.4416389465332 L588.432861328125,62.6278190612793 L589.5118408203125,61.76503372192383 L590.2149658203125,60.89640426635742 L590.4732666015625,60.06807327270508 L590.282958984375,59.331119537353516 L589.656494140625,58.74949264526367 L588.6542358398438,58.40534973144531 L587.3619384765625,58.381256103515625 L585.9051513671875,58.727760314941406 L584.46533203125,59.44029235839844 L583.2529296875,60.46015167236328 L582.450927734375,61.67645263671875 L582.2027587890625,62.96868133544922 L582.5765380859375,64.21924591064453 L583.5792236328125,65.32044219970703 L585.1487426757812,66.17206573486328 L587.1357421875,66.71451568603516 L589.386474609375,66.87506103515625 L591.676025390625,66.65604400634766 L593.7838134765625,66.12593841552734 L595.3470458984375,65.55068969726562 L596.2510986328125,65.11839294433594 M595.7518920898438,59.302452087402344 L595.7740478515625,59.41532516479492 L595.891357421875,59.6829719543457 L596.1619873046875,60.14893341064453 L596.6263427734375,60.789947509765625 L597.3020629882812,61.54778289794922 L598.2139282226562,62.330169677734375 L599.34912109375,63.021484375 L600.736572265625,63.52304458618164 L602.373291015625,63.73772048950195 L604.197509765625,63.57976150512695 L606.1098022460938,63.035125732421875 L607.9688720703125,62.15559387207031 L609.5689086914062,61.074562072753906 L610.7960205078125,59.99083709716797 L611.5924072265625,59.06661605834961 L611.927978515625,58.41685104370117 L611.8260498046875,58.13706970214844 L611.3154296875,58.29362106323242 L610.3884887695312,58.9410400390625 L609.12158203125,60.11492919921875 L607.6116943359375,61.767391204833984 L605.9642333984375,63.79348373413086 L604.3095703125,66.06039428710938 L602.770751953125,68.41679382324219 L601.4357299804688,70.69438171386719 L600.4027099609375,72.74885559082031 L599.7698974609375,74.41737365722656 L599.5634155273438,75.5785903930664 L599.7460327148438,76.19265747070312 L600.0902099609375,76.39411163330078 L600.3976440429688,76.36761474609375 M626.2884521484375,47.93241882324219 L626.3513793945312,48.05978775024414 L626.420654296875,48.43613815307617 L626.4368896484375,49.17824172973633 L626.3277587890625,50.328590393066406 L626.067626953125,51.86363220214844 L625.7020263671875,53.72286605834961 L625.3387451171875,55.82196044921875 L625.09228515625,58.039642333984375 L625.051025390625,60.22265625 L625.2159423828125,62.180519104003906 L625.5345458984375,63.7683219909668 L625.9588623046875,64.88023376464844 L626.4773559570312,65.48048400878906 L627.1280517578125,65.5691146850586 L627.9794311523438,65.18831634521484 L629.02734375,64.39228057861328 L630.2245483398438,63.3113899230957 L631.4931640625,62.07815170288086 L632.735595703125,60.84585189819336 L633.8814697265625,59.7319450378418 L634.9267578125,58.852882385253906 L635.87060546875,58.278358459472656 L636.7363891601562,58.10111999511719 L637.517822265625,58.357425689697266 L638.149169921875,59.04817199707031 L638.5306396484375,60.10887145996094 L638.5888671875,61.44675827026367 L638.2589111328125,62.90570831298828 L637.5372924804688,64.3464126586914 L636.4295654296875,65.60460662841797 L634.9664306640625,66.56224060058594 L633.2188720703125,67.15860748291016 L631.3215942382812,67.394287109375 L629.44287109375,67.30360412597656 L627.7886962890625,66.97686004638672 L626.6162719726562,66.44233703613281 L626.0914306640625,65.75004577636719 L626.2459106445312,64.95222473144531 L626.7403564453125,64.25855255126953 L627.2361450195312,63.79122543334961 M641.2470703125,58.75754928588867 L641.1966552734375,58.932106018066406 L641.113037109375,59.31318664550781 L641.01611328125,59.933101654052734 L640.9620361328125,60.7566032409668 L641.0070190429688,61.72953414916992 L641.2147216796875,62.769657135009766 L641.645263671875,63.77336502075195 L642.32861328125,64.63261413574219 L643.2667236328125,65.22733306884766 L644.4305419921875,65.46153259277344 L645.7457885742188,65.28560638427734 L647.140380859375,64.70361328125 L648.515625,63.77532196044922 L649.779541015625,62.615135192871094 L650.8511352539062,61.38003921508789 L651.6546020507812,60.240699768066406 L652.1708984375,59.336448669433594 L652.4400634765625,58.74532699584961 L652.5064697265625,58.51890182495117 L652.4365234375,58.66462707519531 L652.2922973632812,59.19784164428711 L652.1141357421875,60.09912872314453 L651.9912109375,61.269622802734375 L652.0379638671875,62.54902267456055 L652.3082885742188,63.76903533935547 L652.794677734375,64.76838684082031 L653.3010864257812,65.429443359375 L653.6665649414062,65.76753234863281 M657.9376220703125,58.98838424682617 L658.0048828125,58.990596771240234 L658.0964965820312,59.147457122802734 L658.162109375,59.57649612426758 L658.14892578125,60.3434944152832 L658.0531616210938,61.38827133178711 L657.88916015625,62.578182220458984 L657.71484375,63.75221252441406 L657.5994873046875,64.77792358398438 L657.563232421875,65.52070617675781 L657.6276245117188,65.88733673095703 L657.8040771484375,65.825439453125 L658.1043701171875,65.32015228271484 L658.569091796875,64.42156982421875 L659.2249755859375,63.25507354736328 L660.0549926757812,61.946075439453125 L661.027099609375,60.64904022216797 L662.0894775390625,59.49934768676758 L663.1962280273438,58.6009521484375 L664.30908203125,58.01887512207031 L665.4044189453125,57.816619873046875 L666.4269409179688,57.99452590942383 L667.31689453125,58.53667449951172 L668.0050659179688,59.393009185791016 L668.4415283203125,60.509647369384766 L668.6220703125,61.787071228027344 L668.6205444335938,63.137237548828125 L668.512451171875,64.42302703857422 L668.44384765625,65.4774169921875 L668.52099609375,66.16835021972656 L668.7954711914062,66.45188903808594 L669.1357421875,66.44795227050781 L669.4220581054688,66.33245086669922 M672.7847900390625,59.33039474487305 L672.7896728515625,59.3956298828125 L672.805908203125,59.645023345947266 L672.8232421875,60.16189193725586 L672.8280639648438,60.9738883972168 L672.7943725585938,62.00667190551758 L672.7569580078125,63.15488052368164 L672.7493286132812,64.28145599365234 L672.780029296875,65.264892578125 L672.8519287109375,65.98418426513672 L672.957763671875,66.35279083251953 L673.092529296875,66.31764221191406 L673.3032836914062,65.8742904663086 L673.6336669921875,65.05489349365234 L674.0960693359375,63.95240020751953 L674.708984375,62.68412780761719 L675.4598999023438,61.37739562988281 L676.3275146484375,60.1571159362793 L677.2864990234375,59.120994567871094 L678.3204956054688,58.3487548828125 L679.3779296875,57.90682601928711 L680.419921875,57.83919906616211 L681.37744140625,58.151615142822266 L682.179931640625,58.832489013671875 L682.76318359375,59.8262939453125 L683.1222534179688,61.05299377441406 L683.2691650390625,62.39381408691406 L683.2825927734375,63.72358322143555 L683.295166015625,64.8642349243164 L683.4169921875,65.68225860595703 L683.7037963867188,66.0943374633789 L684.0438842773438,66.1958236694336 L684.315185546875,66.13406372070312 M687.9683837890625,59.30830001831055 L687.978271484375,59.506771087646484 L688.0299682617188,59.97160720825195 L688.1650390625,60.7411003112793 L688.4238891601562,61.7435417175293 L688.8396606445312,62.84886932373047 L689.43798828125,63.907527923583984 L690.22265625,64.79275512695312 L691.22998046875,65.37715911865234 L692.488525390625,65.5495834350586 L693.987548828125,65.24877166748047 L695.6881103515625,64.50054168701172 L697.48583984375,63.4133415222168 L699.1849365234375,62.18519973754883 L700.6259765625,60.980098724365234 L701.6898193359375,59.942779541015625 L702.296142578125,59.18116760253906 L702.4525756835938,58.77401351928711 L702.1922607421875,58.790889739990234 L701.5258178710938,59.317623138427734 L700.48779296875,60.35895538330078 L699.18310546875,61.873207092285156 L697.708984375,63.744163513183594 L696.201904296875,65.81004333496094 L694.8092041015625,67.93395233154297 L693.6320190429688,70.00039672851562 L692.7391967773438,71.90787506103516 L692.1888427734375,73.59344482421875 L691.9996337890625,74.97615051269531 L692.1483154296875,75.99093627929688 L692.5807495117188,76.62577056884766 L693.0618286132812,76.9314193725586 L693.4273071289062,77.01757049560547 M707.2372436523438,67.52389526367188 L707.4501953125,67.29612731933594 L707.9306640625,66.8299789428711 L708.7584228515625,66.11354064941406 L709.9405517578125,65.19915771484375 L711.486328125,64.15373992919922 L713.3585205078125,63.05097961425781 L715.484130859375,61.93955993652344 L717.757080078125,60.855587005615234 L720.0413208007812,59.842742919921875 L722.1502685546875,58.92407989501953 L723.9313354492188,58.14018249511719 L725.2774658203125,57.53778839111328 L726.1046752929688,57.12321472167969 L726.38427734375,56.89997100830078 L726.1244506835938,56.87531280517578 L725.3177490234375,57.06805419921875 L724.0003662109375,57.50764465332031 L722.2890625,58.22627258300781 L720.3360595703125,59.17903518676758 L718.3612060546875,60.29617691040039 L716.5935668945312,61.485313415527344 L715.2155151367188,62.67622375488281 L714.3541259765625,63.82217025756836 L714.1065063476562,64.90640258789062 L714.5162353515625,65.8841323852539 L715.5975341796875,66.70553588867188 L717.2975463867188,67.33216857910156 L719.569091796875,67.76961517333984 L722.2250366210938,68.0550308227539 L725.009033203125,68.2546157836914 L727.2669677734375,68.38938903808594 L728.6744384765625,68.46890258789062 " fill="none" stroke="black" stroke-linecap="round" stroke-width="2" /><path d="M0,0 M313.4410400390625,108.9035415649414 L313.4522705078125,108.78260040283203 L313.4574279785156,108.74568176269531 L313.4234313964844,108.95112609863281 L313.3087158203125,109.56199645996094 L313.091552734375,110.62770080566406 L312.7672119140625,112.1408920288086 L312.33502197265625,114.06263732910156 L311.8475341796875,116.36799621582031 L311.32794189453125,118.98835754394531 L310.80401611328125,121.81855773925781 L310.3038330078125,124.71016693115234 L309.8516845703125,127.49282836914062 L309.4759216308594,129.96519470214844 L309.2066955566406,131.96864318847656 L309.04718017578125,133.3051300048828 L308.97802734375,133.9962615966797 M312.44244384765625,107.9872055053711 L312.5738525390625,107.60586547851562 L312.7881164550781,107.17232513427734 L313.0459289550781,106.916259765625 L313.27593994140625,107.12385559082031 L313.4490051269531,107.87203216552734 L313.5915222167969,109.12670135498047 L313.7741394042969,110.7399673461914 L314.0795593261719,112.56148529052734 L314.58953857421875,114.37995910644531 L315.3540954589844,115.99816131591797 L316.40093994140625,117.26385498046875 L317.73138427734375,118.06060028076172 L319.32470703125,118.30913543701172 L321.12359619140625,117.9859848022461 L323.0334777832031,117.10781860351562 L324.9386901855469,115.7557144165039 L326.72296142578125,114.06124877929688 L328.288818359375,112.18450927734375 L329.5995788574219,110.28408813476562 L330.6282653808594,108.52323913574219 L331.3732604980469,107.0354232788086 L331.8634948730469,105.91304016113281 L332.1168212890625,105.21693420410156 L332.179931640625,105.0 L332.1138610839844,105.29515838623047 L331.93560791015625,106.16236114501953 L331.662841796875,107.61521911621094 L331.31732177734375,109.58868408203125 L330.90447998046875,111.966552734375 L330.46466064453125,114.62309265136719 L330.03021240234375,117.40467071533203 L329.63037109375,120.19407653808594 L329.2891540527344,122.8602523803711 L329.0317077636719,125.27226257324219 L328.8457946777344,127.31092071533203 L328.74334716796875,128.87911987304688 L328.71380615234375,129.90640258789062 L328.7704772949219,130.41400146484375 L328.86297607421875,130.5538787841797 L328.95458984375,130.51406860351562 M336.3666687011719,122.08442687988281 L336.39276123046875,121.70100402832031 L336.3865966796875,121.18208312988281 L336.3109436035156,120.68878936767578 L336.1226806640625,120.44635772705078 L335.8137512207031,120.51270294189453 L335.40606689453125,120.9221420288086 L334.9429016113281,121.63716888427734 L334.4731140136719,122.61898803710938 L334.0734558105469,123.79156494140625 L333.8047790527344,125.061767578125 L333.7192077636719,126.32654571533203 L333.86749267578125,127.50334167480469 L334.2979431152344,128.49560546875 L335.0357360839844,129.21168518066406 L336.0814208984375,129.5782470703125 L337.3825378417969,129.55311584472656 L338.8391418457031,129.1244659423828 L340.34844970703125,128.34539794921875 L341.8149719238281,127.30209350585938 L343.1424255371094,126.09095764160156 L344.2580871582031,124.81651306152344 L345.0968017578125,123.58533477783203 L345.61700439453125,122.4840087890625 L345.8476867675781,121.61031341552734 L345.8448486328125,121.04780578613281 L345.67596435546875,120.85281372070312 L345.39794921875,121.06829833984375 L345.0439453125,121.72960662841797 L344.6520690917969,122.81792449951172 L344.2983093261719,124.30776977539062 L344.0312805175781,126.14025115966797 L343.901611328125,128.25604248046875 L343.9008483886719,130.58853149414062 L344.00469970703125,133.07232666015625 L344.1744384765625,135.60736083984375 L344.3734436035156,138.10260009765625 L344.52960205078125,140.437255859375 L344.6097412109375,142.5161895751953 L344.5711364746094,144.2397003173828 L344.40191650390625,145.52659606933594 L344.0777587890625,146.32357788085938 L343.56402587890625,146.6324005126953 L342.81671142578125,146.4762420654297 L341.8431701660156,145.9355926513672 L340.6976623535156,145.1002960205078 L339.4764099121094,144.06741333007812 L338.2930603027344,142.9436798095703 L337.2516174316406,141.81906127929688 L336.4490966796875,140.76113891601562 L335.9743347167969,139.8325958251953 L335.87286376953125,139.05955505371094 L336.2299499511719,138.45848083496094 L337.054443359375,138.04649353027344 L338.26727294921875,137.80520629882812 L339.43902587890625,137.69642639160156 L340.2766418457031,137.6726531982422 M374.667236328125,123.41067504882812 L374.54315185546875,123.04110717773438 L374.197265625,122.5057601928711 L373.5248107910156,121.93553924560547 L372.48297119140625,121.53339385986328 L371.07769775390625,121.36554718017578 L369.38604736328125,121.48816680908203 L367.5332946777344,121.91822052001953 L365.6494445800781,122.66494750976562 L363.8985900878906,123.70446014404297 L362.457275390625,124.97534942626953 L361.47271728515625,126.39490509033203 L361.0683898925781,127.86384582519531 L361.31182861328125,129.2639923095703 L362.20574951171875,130.47105407714844 L363.691162109375,131.37490844726562 L365.65582275390625,131.90345764160156 L367.9278564453125,132.03048706054688 L370.3206787109375,131.77691650390625 L372.6605224609375,131.1973114013672 L374.8135986328125,130.3474578857422 L376.66046142578125,129.27114868164062 L378.1295166015625,128.01495361328125 L379.18109130859375,126.63304901123047 L379.834228515625,125.24650573730469 L380.1507873535156,124.00521850585938 L380.2427978515625,123.04353332519531 L380.17962646484375,122.45938110351562 L380.013916015625,122.29988098144531 L379.780029296875,122.56412506103516 L379.50152587890625,123.24689483642578 L379.21588134765625,124.29573059082031 L379.0173645019531,125.6070556640625 L378.97705078125,127.03833770751953 L379.18072509765625,128.42623901367188 L379.69818115234375,129.61370849609375 L380.537841796875,130.47775268554688 L381.6703186035156,130.93870544433594 L383.03228759765625,130.94265747070312 L384.5243835449219,130.4773712158203 L386.0382080078125,129.57608032226562 L387.47808837890625,128.3203125 L388.74810791015625,126.82644653320312 L389.7652587890625,125.27297973632812 L390.495361328125,123.83576965332031 L390.9544677734375,122.67108917236328 L391.16009521484375,121.8873291015625 L391.171630859375,121.55433654785156 L391.0379333496094,121.67509460449219 L390.7889404296875,122.25894927978516 L390.5073547363281,123.27359771728516 L390.2895812988281,124.6198959350586 L390.2091369628906,126.14451599121094 L390.3409423828125,127.67745208740234 L390.7226867675781,129.02516174316406 L391.3499755859375,130.05406188964844 L392.2144775390625,130.6761016845703 L393.2777404785156,130.83448791503906 L394.47412109375,130.52151489257812 L395.72381591796875,129.7720489501953 L396.95599365234375,128.6518096923828 L398.09912109375,127.27255249023438 L399.09210205078125,125.7796630859375 L399.894775390625,124.34481811523438 L400.4810791015625,123.11376190185547 L400.84149169921875,122.18289184570312 L401.00238037109375,121.61432647705078 L400.99737548828125,121.43621826171875 L400.860107421875,121.6683349609375 L400.6297912597656,122.33708953857422 L400.35308837890625,123.39938354492188 L400.0957336425781,124.74960327148438 L399.95562744140625,126.23896789550781 L400.0225830078125,127.69734954833984 L400.36083984375,128.9706268310547 L400.99853515625,129.9512939453125 L401.91375732421875,130.5509033203125 L403.06024169921875,130.72512817382812 L404.3623046875,130.45884704589844 L405.7096252441406,129.77549743652344 L406.9935607910156,128.72055053710938 L408.13372802734375,127.39891052246094 L409.0660705566406,125.9297866821289 L409.7805480957031,124.4690933227539 L410.2733154296875,123.16615295410156 L410.5626525878906,122.1285629272461 L410.67529296875,121.41374969482422 L410.6539001464844,121.08448791503906 L410.5354309082031,121.16472625732422 L410.35552978515625,121.6792984008789 L410.1356201171875,122.60845947265625 L409.9288635253906,123.8467788696289 L409.7874450683594,125.23456573486328 L409.79278564453125,126.61222839355469 L410.0010986328125,127.82418823242188 L410.4465026855469,128.7657928466797 L411.11187744140625,129.35772705078125 L411.9871826171875,129.5472412109375 L413.0194091796875,129.31729125976562 L414.1460266113281,128.69802856445312 L415.2635498046875,127.7505111694336 L416.2847900390625,126.57616424560547 L417.12457275390625,125.2970199584961 L417.76654052734375,124.04061126708984 L418.21356201171875,122.93077087402344 L418.4848937988281,122.05406951904297 L418.6148681640625,121.4610595703125 L418.6446228027344,121.18608856201172 L418.6107177734375,121.25687408447266 L418.54217529296875,121.68208312988281 L418.47802734375,122.4540786743164 L418.4474792480469,123.4995346069336 L418.502685546875,124.71473693847656 L418.6843566894531,125.97760009765625 L419.03118896484375,127.1605224609375 L419.559326171875,128.15716552734375 L420.3021545410156,128.8681182861328 L421.26580810546875,129.21287536621094 L422.43670654296875,129.1593017578125 L423.73577880859375,128.72335815429688 L425.0716857910156,127.97195434570312 L426.3355712890625,127.01087188720703 L427.4403076171875,125.93864440917969 L428.31915283203125,124.87177276611328 L428.9502258300781,123.91586303710938 L429.3283386230469,123.16476440429688 L429.49908447265625,122.69705200195312 L429.51904296875,122.54938507080078 L429.44195556640625,122.7174301147461 L429.3150634765625,123.19363403320312 L429.1821594238281,123.93191528320312 L429.1004943847656,124.85941314697266 L429.16778564453125,125.9068832397461 L429.4461669921875,126.97290802001953 L429.9486083984375,127.95561981201172 L430.4798278808594,128.68975830078125 L430.8752746582031,129.11691284179688 M440.34521484375,110.82510375976562 L440.40020751953125,110.75675964355469 L440.46246337890625,110.83283996582031 L440.4991455078125,111.22975158691406 L440.47216796875,112.1080093383789 L440.36810302734375,113.47315216064453 L440.1949462890625,115.24994659423828 L439.9864501953125,117.34152221679688 L439.7485046386719,119.62024688720703 L439.5051574707031,121.94064331054688 L439.2725830078125,124.16232299804688 L439.03826904296875,126.12959289550781 L438.80609130859375,127.71002197265625 L438.58441162109375,128.83853149414062 L438.37615966796875,129.5176544189453 L438.22161865234375,129.8317108154297 L438.1365966796875,129.9233856201172 M433.67657470703125,123.13536834716797 L433.58319091796875,122.90585327148438 L433.641357421875,122.58395385742188 L434.0306396484375,122.22260284423828 L434.92645263671875,121.91724395751953 L436.3345947265625,121.67169189453125 L438.1678466796875,121.48587799072266 L440.25860595703125,121.34719848632812 L442.40997314453125,121.27287292480469 L444.37591552734375,121.24446105957031 L445.9775085449219,121.26960754394531 L447.0346984863281,121.31900024414062 L447.56988525390625,121.36677551269531 M448.1345520019531,122.37753295898438 L448.309814453125,122.12654113769531 L448.54229736328125,121.77841186523438 L448.76055908203125,121.47496032714844 L448.8620910644531,121.40504455566406 L448.84088134765625,121.66539001464844 L448.6999206542969,122.27332305908203 L448.4732666015625,123.1986083984375 L448.1877136230469,124.35317993164062 L447.89056396484375,125.65087890625 L447.61993408203125,126.97685241699219 L447.448974609375,128.18264770507812 L447.4229736328125,129.11105346679688 L447.55816650390625,129.67710876464844 L447.7553405761719,129.9091033935547 L447.92864990234375,129.93394470214844 M448.27349853515625,113.49105072021484 L448.3016357421875,113.21406555175781 L448.366943359375,112.91189575195312 L448.44415283203125,112.67820739746094 L448.50799560546875,112.60665893554688 M452.7232666015625,127.42515563964844 L453.1783447265625,127.51346588134766 L454.02789306640625,127.54647064208984 L455.24798583984375,127.42108154296875 L456.68115234375,127.06039428710938 L458.1925964355469,126.49537658691406 L459.6419982910156,125.79293060302734 L460.9018249511719,125.016845703125 L461.8514404296875,124.20731353759766 L462.38629150390625,123.3990478515625 L462.4464111328125,122.6457290649414 L462.0036315917969,122.01710510253906 L461.09796142578125,121.60050201416016 L459.833740234375,121.467529296875 L458.38201904296875,121.6627197265625 L456.9289855957031,122.18513488769531 L455.6661376953125,122.98558044433594 L454.76416015625,123.98087310791016 L454.3627014160156,125.0870361328125 L454.5639953613281,126.19745635986328 L455.42474365234375,127.21526336669922 L456.9237060546875,128.05209350585938 L458.9761962890625,128.64759826660156 L461.4085998535156,128.9878387451172 L464.025634765625,129.0909881591797 L466.566650390625,128.98690795898438 L468.79937744140625,128.73655700683594 L470.38671875,128.46853637695312 L471.26641845703125,128.2698974609375 M490.0108642578125,111.04395294189453 L490.03173828125,110.97019958496094 L490.03411865234375,110.92108154296875 L489.984619140625,111.01249694824219 L489.83355712890625,111.37606811523438 L489.56549072265625,112.1075439453125 L489.1685791015625,113.2138900756836 L488.6624755859375,114.67024230957031 L488.0943908691406,116.43669891357422 L487.5128173828125,118.44979858398438 L486.95562744140625,120.62023162841797 L486.4798583984375,122.8464584350586 L486.117919921875,124.98650360107422 L485.9250183105469,126.9123306274414 L485.93402099609375,128.52093505859375 L486.1591796875,129.72564697265625 L486.6063537597656,130.48004150390625 L487.3031005859375,130.76123046875 L488.2578430175781,130.5738525390625 L489.48193359375,129.94837951660156 L490.8984375,128.96009826660156 L492.4080810546875,127.70762634277344 L493.86651611328125,126.32272338867188 L495.14398193359375,124.95435333251953 L496.13775634765625,123.75817108154297 L496.8089294433594,122.835693359375 L497.1624755859375,122.26207733154297 L497.26812744140625,122.06542205810547 L497.195068359375,122.25208282470703 L497.0008544921875,122.82345581054688 L496.7392883300781,123.75750732421875 L496.45648193359375,124.93801879882812 L496.2198486328125,126.22673797607422 L496.08258056640625,127.45431518554688 L496.0709228515625,128.48477172851562 L496.12908935546875,129.1846160888672 L496.2030029296875,129.55850219726562 M497.7536315917969,111.80198669433594 L497.724365234375,111.58318328857422 L497.71246337890625,111.34675598144531 L497.7185974121094,111.16556549072266 L497.74346923828125,111.11245727539062 M503.48443603515625,122.19026184082031 L503.9625549316406,121.66633605957031 L504.7978820800781,120.71546936035156 L505.9345703125,119.37503051757812 L507.18426513671875,117.79894256591797 L508.45220947265625,116.06135559082031 L509.646240234375,114.23072814941406 L510.67926025390625,112.37781524658203 L511.4429016113281,110.60572814941406 L511.8426208496094,109.03728485107422 L511.8070068359375,107.7696762084961 L511.32379150390625,106.90347290039062 L510.4408264160156,106.52202606201172 L509.233154296875,106.68634796142578 L507.821044921875,107.42925262451172 L506.3418273925781,108.72759246826172 L504.92474365234375,110.49811553955078 L503.6884460449219,112.6364974975586 L502.7186584472656,115.01560974121094 L502.07220458984375,117.49848937988281 L501.7852783203125,119.94068145751953 L501.8757629394531,122.19307708740234 L502.33575439453125,124.12017822265625 L503.1396484375,125.6502685546875 L504.32440185546875,126.73336029052734 L505.8759765625,127.38348388671875 L507.69775390625,127.6435546875 L509.30010986328125,127.66133117675781 L510.37384033203125,127.5781021118164 M527.255615234375,110.18069458007812 L527.3619995117188,110.24996185302734 L527.4959106445312,110.49192810058594 L527.60693359375,111.01032257080078 L527.6046752929688,111.86422729492188 L527.4598999023438,113.06318664550781 L527.1597900390625,114.58026123046875 L526.7429809570312,116.36685180664062 L526.2512817382812,118.33071899414062 L525.7440185546875,120.35911560058594 L525.2655639648438,122.31427764892578 L524.861083984375,124.06462860107422 L524.530029296875,125.49517059326172 L524.2738647460938,126.53227233886719 L524.1007080078125,127.11983489990234 L523.9991455078125,127.24254608154297 L524.0216674804688,126.92632293701172 L524.243896484375,126.21937561035156 L524.7311401367188,125.2027587890625 L525.5309448242188,124.006103515625 L526.677734375,122.76107025146484 L528.1104736328125,121.59752655029297 L529.7659912109375,120.63523864746094 L531.5472412109375,119.95658111572266 L533.35693359375,119.6171646118164 L535.08251953125,119.65574645996094 L536.64208984375,120.07382202148438 L537.9268798828125,120.83992004394531 L538.83642578125,121.88323211669922 L539.283203125,123.09899139404297 L539.206298828125,124.36824035644531 L538.5863037109375,125.56836700439453 L537.4813232421875,126.60346221923828 L535.997802734375,127.40725708007812 L534.2784423828125,127.93572235107422 L532.4766235351562,128.17735290527344 L530.7525024414062,128.14048767089844 L529.2735595703125,127.87252044677734 L528.1832885742188,127.46381378173828 L527.5418090820312,127.08220672607422 L527.2750854492188,126.82686614990234 M549.5196533203125,124.6985855102539 L549.630615234375,124.19286346435547 L549.6944580078125,123.3803939819336 L549.5771484375,122.37635040283203 L549.1427001953125,121.40840911865234 L548.3680419921875,120.57161712646484 L547.2910766601562,119.95914459228516 L545.981689453125,119.6176986694336 L544.5457763671875,119.63226318359375 L543.1021728515625,120.05108642578125 L541.7748413085938,120.86661529541016 L540.703369140625,122.00324249267578 L540.01025390625,123.33504486083984 L539.785888671875,124.67640686035156 L540.0899047851562,125.84452056884766 L540.9275512695312,126.68966674804688 L542.2286376953125,127.1206283569336 L543.8858642578125,127.1038589477539 L545.739013671875,126.67639923095703 L547.597900390625,125.90969848632812 L549.2708740234375,124.91483306884766 L550.607177734375,123.85382080078125 L551.52490234375,122.8886947631836 L552.0360107421875,122.15558624267578 L552.20361328125,121.73625183105469 L552.1140747070312,121.6550521850586 L551.8563232421875,121.91275787353516 L551.5191040039062,122.51272583007812 L551.2010498046875,123.40792846679688 L551.002685546875,124.52264404296875 L550.9947509765625,125.72772979736328 L551.198974609375,126.88058471679688 L551.6864013671875,127.80055236816406 L552.4728393554688,128.35723876953125 L553.5344848632812,128.4800262451172 L554.541259765625,128.3353729248047 L555.2584228515625,128.1124725341797 M560.6846923828125,109.15287017822266 L560.6954345703125,108.77293395996094 L560.72265625,108.41275024414062 L560.7532348632812,108.33230590820312 L560.7633666992188,108.82035064697266 L560.7237548828125,109.90147399902344 L560.630615234375,111.50751495361328 L560.4890747070312,113.47747802734375 L560.3131103515625,115.6686019897461 L560.0965576171875,117.87089538574219 L559.851806640625,119.89044952392578 L559.5863037109375,121.57772064208984 L559.335205078125,122.83538055419922 L559.1248779296875,123.59688568115234 L559.003173828125,123.85865020751953 L559.0167236328125,123.64221954345703 L559.2388916015625,123.0128402709961 L559.7188720703125,122.07342529296875 L560.492431640625,120.96025085449219 L561.55224609375,119.8144760131836 L562.8726806640625,118.79039764404297 L564.4027709960938,118.02454376220703 L566.058349609375,117.61473083496094 L567.7368774414062,117.60253143310547 L569.3424072265625,117.97300720214844 L570.76904296875,118.67003631591797 L571.90576171875,119.60872650146484 L572.667236328125,120.69249725341797 L572.9775390625,121.82051086425781 L572.7994384765625,122.89913940429688 L572.140625,123.83238983154297 L571.0484619140625,124.55072784423828 L569.5990600585938,125.01425170898438 L567.932861328125,125.21256256103516 L566.2176513671875,125.17222595214844 L564.6093139648438,124.95468139648438 L563.2679443359375,124.58804321289062 L562.312744140625,124.11019897460938 L561.7935180664062,123.56779479980469 L561.6182861328125,123.10029602050781 L561.6384887695312,122.79048919677734 M575.1412353515625,118.71003723144531 L575.2276000976562,118.609619140625 L575.3170166015625,118.53643035888672 L575.35693359375,118.60340118408203 L575.29248046875,118.93460845947266 L575.1396484375,119.56535339355469 L574.9588012695312,120.45630645751953 L574.85693359375,121.50578308105469 L574.9231567382812,122.60110473632812 L575.25244140625,123.6094970703125 L575.8974609375,124.40998077392578 L576.869384765625,124.8914794921875 L578.1466064453125,124.98562622070312 L579.6756591796875,124.67266082763672 L581.345458984375,123.9961929321289 L583.0274658203125,123.0446548461914 L584.569580078125,121.95085144042969 L585.830322265625,120.85625457763672 L586.739990234375,119.89794921875 L587.2808837890625,119.17646789550781 L587.48486328125,118.78669738769531 L587.3945922851562,118.80248260498047 L587.0427856445312,119.30089569091797 L586.44873046875,120.33802795410156 L585.6880493164062,121.90278625488281 L584.8377685546875,123.93196868896484 L583.9944458007812,126.33836364746094 L583.2233276367188,129.00393676757812 L582.5537109375,131.806884765625 L581.9869384765625,134.60198974609375 L581.52734375,137.2060546875 L581.15673828125,139.4429931640625 L580.848388671875,141.16554260253906 L580.55859375,142.2859649658203 L580.2342529296875,142.77464294433594 L579.8472900390625,142.6564178466797 L579.3847045898438,141.9738311767578 L578.8697509765625,140.7909698486328 L578.3648681640625,139.21365356445312 L577.9339599609375,137.4008026123047 L577.7376098632812,135.47579956054688 L577.9176635742188,133.60205078125 L578.5260009765625,131.9019012451172 L579.2636108398438,130.63803100585938 L579.8707275390625,129.8981475830078 M597.5670166015625,123.36082458496094 L597.683837890625,122.8667984008789 L597.7310791015625,122.11032104492188 L597.58837890625,121.22290802001953 L597.1361083984375,120.42613983154297 L596.3612060546875,119.7835922241211 L595.3199462890625,119.35694122314453 L594.0921630859375,119.17866516113281 L592.762939453125,119.3147201538086 L591.4781494140625,119.79878234863281 L590.3700561523438,120.60260009765625 L589.5826416015625,121.6414794921875 L589.2484130859375,122.79368591308594 L589.431640625,123.90153503417969 L590.1512451171875,124.82406616210938 L591.3590698242188,125.44993591308594 L592.9312744140625,125.7132568359375 L594.744140625,125.60062408447266 L596.6500244140625,125.14630889892578 L598.4808349609375,124.41072845458984 L600.0738525390625,123.50804901123047 L601.292236328125,122.57279205322266 L602.0621337890625,121.73650360107422 L602.41357421875,121.11786651611328 L602.4486083984375,120.79993438720703 L602.300048828125,120.82170867919922 L602.0733642578125,121.22686767578125 L601.8475341796875,122.03089904785156 L601.6568603515625,123.19083404541016 L601.5314331054688,124.6413345336914 L601.4976806640625,126.29444885253906 L601.54638671875,128.04348754882812 L601.641357421875,129.80332946777344 L601.7273559570312,131.48776245117188 L601.728271484375,132.99488830566406 L601.5909423828125,134.2565155029297 L601.2730102539062,135.22059631347656 L600.7254638671875,135.85498046875 L599.94580078125,136.15541076660156 L598.9593505859375,136.12657165527344 L597.843994140625,135.77871704101562 L596.706298828125,135.1514892578125 L595.659912109375,134.29115295410156 L594.804443359375,133.25892639160156 L594.22802734375,132.12448120117188 L593.9873046875,130.95660400390625 L594.14404296875,129.81893920898438 L594.7025756835938,128.7755126953125 L595.6766357421875,127.8812026977539 L597.0615844726562,127.16693115234375 L598.816162109375,126.63849639892578 L600.87109375,126.28307342529297 L603.1373291015625,126.0647964477539 L605.4525146484375,125.94239807128906 L607.6715087890625,125.87189483642578 L609.6552734375,125.8048324584961 L611.274169921875,125.69812774658203 L612.461669921875,125.54092407226562 L613.218994140625,125.3415298461914 L613.6016235351562,125.12440490722656 L613.7256469726562,124.91619873046875 L613.718994140625,124.75898742675781 L613.6524658203125,124.69454193115234 L613.5572509765625,124.79564666748047 L613.442138671875,125.11785125732422 L613.3271484375,125.66978454589844 L613.2578125,126.38414001464844 L613.2637939453125,127.1713638305664 L613.34814453125,127.86722564697266 L613.4808349609375,128.34161376953125 L613.637451171875,128.51669311523438 L613.76904296875,128.4821014404297 L613.8587646484375,128.35702514648438 M613.7955322265625,114.86495971679688 L613.816650390625,114.81633758544922 L613.8698120117188,114.80262756347656 L613.9342041015625,114.82269287109375 L613.9888916015625,114.87541961669922 M618.8580322265625,121.2414321899414 L618.8876953125,121.28038787841797 L618.9039306640625,121.44171905517578 L618.8486938476562,121.80158233642578 L618.681884765625,122.40061950683594 L618.3949584960938,123.21012115478516 L618.0167236328125,124.15848541259766 L617.6251220703125,125.1393051147461 L617.2985229492188,126.03982543945312 L617.0684204101562,126.75151824951172 L616.9498291015625,127.173095703125 L616.91455078125,127.22824096679688 L616.964599609375,126.88166809082031 L617.1264038085938,126.1361083984375 L617.4461059570312,125.0860824584961 L617.9419555664062,123.87751007080078 L618.6243896484375,122.6792221069336 L619.4703369140625,121.63914489746094 L620.470947265625,120.86077117919922 L621.611572265625,120.37486267089844 L622.9407958984375,120.19940185546875 L624.4293212890625,120.29313659667969 L626.0144653320312,120.57939147949219 L627.3299560546875,120.88951873779297 L628.1739501953125,121.11632537841797 M632.843505859375,112.2057113647461 L632.9781494140625,112.44821166992188 L633.141357421875,112.94906616210938 L633.2612915039062,113.74858093261719 L633.2254638671875,114.82022857666016 L633.030029296875,116.15550231933594 L632.7216796875,117.7226791381836 L632.3810424804688,119.45255279541016 L632.0797119140625,121.25434112548828 L631.88134765625,122.99198150634766 L631.7759399414062,124.53694152832031 L631.7427978515625,125.65916442871094 L631.747314453125,126.30067443847656 M653.44482421875,125.06501007080078 L653.5762329101562,124.69642639160156 L653.7394409179688,124.07154846191406 L653.8599853515625,123.2421646118164 L653.836669921875,122.3554458618164 L653.6299438476562,121.48966217041016 L653.1993408203125,120.7247314453125 L652.5202026367188,120.127197265625 L651.5791015625,119.78897094726562 L650.407958984375,119.77703094482422 L649.0842895507812,120.1353530883789 L647.729736328125,120.87232208251953 L646.4765014648438,121.94974517822266 L645.4592895507812,123.27643585205078 L644.8016357421875,124.72025299072266 L644.5977783203125,126.11831665039062 L644.8897705078125,127.30091857910156 L645.6590576171875,128.12582397460938 L646.827392578125,128.49429321289062 L648.2874755859375,128.37745666503906 L649.9154663085938,127.8110580444336 L651.56689453125,126.88204193115234 L653.0907592773438,125.70606231689453 L654.3402099609375,124.43504333496094 L655.2274780273438,123.23098754882812 L655.75390625,122.24497985839844 L655.9879150390625,121.58265686035156 L656.011474609375,121.29301452636719 L655.8914794921875,121.38188934326172 L655.6482543945312,121.84636688232422 L655.3192138671875,122.67784118652344 L654.9799194335938,123.8148193359375 L654.7237548828125,125.13961029052734 L654.644775390625,126.4905014038086 L654.8168334960938,127.69648742675781 L655.2543334960938,128.61773681640625 L656.0106811523438,129.13351440429688 L657.0701293945312,129.19659423828125 L658.3477172851562,128.85305786132812 L659.480224609375,128.3731689453125 L660.240478515625,127.97747039794922 M662.8101196289062,121.75926208496094 L662.6588134765625,121.55060577392578 L662.452392578125,121.35977935791016 L662.22412109375,121.32646179199219 L662.014404296875,121.6053466796875 L661.7861938476562,122.19476318359375 L661.5557861328125,123.03900146484375 L661.35986328125,124.0692367553711 L661.264404296875,125.19843292236328 L661.341064453125,126.31087493896484 L661.6402587890625,127.28535461425781 L662.1773681640625,128.00901794433594 L662.9759521484375,128.38555908203125 L664.013671875,128.39013671875 L665.2208251953125,128.01467895507812 L666.497314453125,127.31375885009766 L667.70751953125,126.372802734375 L668.7213134765625,125.32351684570312 L669.4658813476562,124.29728698730469 L669.92578125,123.42984771728516 L670.1243896484375,122.80493927001953 L670.115478515625,122.48455810546875 L669.9487915039062,122.48607635498047 L669.6871337890625,122.82720184326172 L669.4037475585938,123.48947143554688 L669.1928100585938,124.40692138671875 L669.16455078125,125.46115112304688 L669.4359130859375,126.51420593261719 L670.0924682617188,127.41301727294922 L671.1617431640625,128.04739379882812 L672.5987548828125,128.3433074951172 L674.2830200195312,128.2491455078125 L676.0554809570312,127.75164031982422 L677.7310791015625,126.88536071777344 L679.1353759765625,125.72069549560547 L680.1176147460938,124.3738021850586 L680.6026000976562,122.98169708251953 L680.5830688476562,121.66204833984375 L680.1156005859375,120.50341796875 L679.2890625,119.6060562133789 L678.2571411132812,119.04572296142578 L677.1842041015625,118.85359954833984 L676.3385009765625,118.90478515625 L675.837646484375,119.04818725585938 M683.5689697265625,120.4822769165039 L683.4934692382812,120.2000732421875 L683.396484375,119.86597442626953 L683.2901611328125,119.62136840820312 L683.1927490234375,119.66130065917969 L683.0888671875,120.03580474853516 L682.94970703125,120.7610092163086 L682.77783203125,121.77528381347656 L682.636474609375,123.02400207519531 L682.6013793945312,124.36560821533203 L682.7611694335938,125.65689086914062 L683.1942138671875,126.7616958618164 L683.9031982421875,127.56676483154297 L684.8509521484375,127.97566986083984 L685.9874267578125,127.94783020019531 L687.2184448242188,127.47731018066406 L688.4285888671875,126.63067626953125 L689.50537109375,125.5306167602539 L690.3316040039062,124.33080291748047 L690.8619384765625,123.17766571044922 L691.1307373046875,122.18817901611328 L691.1992797851562,121.45906066894531 L691.1314697265625,121.05541229248047 L690.967041015625,121.0215835571289 L690.7225952148438,121.37555694580078 L690.4505615234375,122.10912322998047 L690.252197265625,123.13909912109375 L690.2507934570312,124.35081481933594 L690.5551147460938,125.58183288574219 L691.2242431640625,126.66806030273438 L692.2462158203125,127.45623779296875 L693.5513305664062,127.87117767333984 L695.026123046875,127.8566665649414 L696.526611328125,127.42671966552734 L697.8970947265625,126.61746215820312 L698.9891357421875,125.50608825683594 L699.7239990234375,124.19700622558594 L700.068359375,122.83338928222656 L700.0563354492188,121.53514862060547 L699.7742919921875,120.41107940673828 L699.3104248046875,119.54255676269531 L698.7496337890625,118.98686981201172 L698.2012939453125,118.76223754882812 L697.7799682617188,118.76170349121094 L697.5328979492188,118.85514068603516 M703.5337524414062,121.5356674194336 L703.388916015625,121.2926254272461 L703.1593627929688,121.01436614990234 L702.8723754882812,120.86638641357422 L702.5770263671875,121.05010223388672 L702.289306640625,121.63890075683594 L702.04443359375,122.61531829833984 L701.8977661132812,123.85589599609375 L701.9381103515625,125.22785949707031 L702.2515869140625,126.56437683105469 L702.8858642578125,127.70167541503906 L703.8387451171875,128.51121520996094 L705.0548095703125,128.8881072998047 L706.4265747070312,128.75827026367188 L707.82373046875,128.13577270507812 L709.109619140625,127.1056137084961 L710.168212890625,125.8149185180664 L710.9218139648438,124.44066619873047 L711.3497924804688,123.13655853271484 L711.4906616210938,122.01660919189453 L711.4088134765625,121.17168426513672 L711.17333984375,120.67249298095703 L710.850830078125,120.57512664794922 L710.5081176757812,120.92033386230469 L710.2399291992188,121.69416809082031 L710.1702880859375,122.81600189208984 L710.4163818359375,124.14427185058594 L711.0714111328125,125.50102996826172 L712.1846313476562,126.7118148803711 L713.738037109375,127.64229583740234 L715.6430053710938,128.1994171142578 L717.739990234375,128.32763671875 L719.8308715820312,128.00885009765625 L721.7056274414062,127.25778198242188 L723.1920776367188,126.12818145751953 L724.1914672851562,124.72138977050781 L724.6070556640625,123.15399932861328 L724.44677734375,121.5839614868164 L723.8287353515625,120.17523956298828 L723.1129150390625,119.15901947021484 L722.5653076171875,118.59281158447266 " fill="none" stroke="black" stroke-linecap="round" stroke-width="2" /><path d="M0,0 M308.1694641113281,166.31491088867188 L308.1500549316406,166.28790283203125 L308.15362548828125,166.38548278808594 L308.1983642578125,166.74234008789062 L308.2912292480469,167.48681640625 L308.3953857421875,168.65525817871094 L308.4744873046875,170.24139404296875 L308.5148010253906,172.2205352783203 L308.520263671875,174.56201171875 L308.4963073730469,177.20263671875 L308.4390869140625,180.0557861328125 L308.3136291503906,182.99234008789062 L308.1020812988281,185.86700439453125 L307.8293151855469,188.52711486816406 L307.54547119140625,190.83448791503906 L307.29949951171875,192.67698669433594 L307.168701171875,193.93460083007812 L307.1855163574219,194.55853271484375 L307.3680419921875,194.58615112304688 L307.61016845703125,194.30039978027344 L307.8196716308594,193.97064208984375 M317.4931640625,182.9761962890625 L317.56591796875,182.74134826660156 L317.53118896484375,182.4951629638672 L317.23297119140625,182.39035034179688 L316.5359191894531,182.61643981933594 L315.4317626953125,183.2147979736328 L313.9805908203125,184.14894104003906 L312.3307189941406,185.31954956054688 L310.6595458984375,186.61463928222656 L309.1684265136719,187.89974975585938 L308.0680236816406,189.0760955810547 L307.5322570800781,190.0841064453125 L307.6739501953125,190.88319396972656 L308.5625305175781,191.46243286132812 L310.17779541015625,191.810791015625 L312.403076171875,191.94692993164062 L315.0278625488281,191.92599487304688 L317.78564453125,191.8353729248047 L320.3992614746094,191.7628936767578 L322.6358947753906,191.7667694091797 L324.32916259765625,191.85797119140625 L325.4285888671875,192.0093536376953 L325.9666748046875,192.16465759277344 L326.0836181640625,192.2844696044922 L325.9824523925781,192.304931640625 L325.8436279296875,192.17636108398438 L325.7818908691406,191.88902282714844 L325.8075256347656,191.56875610351562 L325.865234375,191.31382751464844 M329.3627624511719,183.63343811035156 L329.37109375,183.60345458984375 L329.3573913574219,183.6529541015625 L329.3114318847656,183.89166259765625 L329.2185974121094,184.42645263671875 L329.08642578125,185.2711944580078 L328.9339904785156,186.40762329101562 L328.7862548828125,187.7499542236328 L328.6661071777344,189.17019653320312 L328.5964050292969,190.53762817382812 L328.5953369140625,191.7378692626953 L328.691162109375,192.65113830566406 L328.93328857421875,193.10963439941406 L329.3461608886719,192.9982147216797 L329.9304504394531,192.30474853515625 L330.488037109375,191.4259796142578 L330.8841247558594,190.7127685546875 M330.89630126953125,171.688232421875 L330.85467529296875,171.58377075195312 L330.8101501464844,171.49610900878906 L330.77996826171875,171.45729064941406 L330.8162841796875,171.5368194580078 L330.9271240234375,171.71261596679688 L331.12188720703125,172.00079345703125 L331.3260498046875,172.29539489746094 L331.48236083984375,172.53164672851562 M344.99285888671875,183.08546447753906 L344.8127746582031,182.93724060058594 L344.33612060546875,182.70518493652344 L343.4457092285156,182.45672607421875 L342.1105041503906,182.2967071533203 L340.3996887207031,182.26731872558594 L338.529541015625,182.39260864257812 L336.76153564453125,182.6251983642578 L335.355712890625,182.93267822265625 L334.5301513671875,183.30584716796875 L334.39007568359375,183.74266052246094 L334.94549560546875,184.2429656982422 L336.157958984375,184.81944274902344 L337.916748046875,185.459228515625 L340.0343933105469,186.1565399169922 L342.29559326171875,186.90711975097656 L344.4581298828125,187.6938934326172 L346.3062744140625,188.48995971679688 L347.6897888183594,189.2542266845703 L348.53546142578125,189.94186401367188 L348.80609130859375,190.50794982910156 L348.5149230957031,190.9346160888672 L347.7157897949219,191.23536682128906 L346.4858093261719,191.4268035888672 L344.91693115234375,191.5249786376953 L343.1424255371094,191.54957580566406 L341.26519775390625,191.50132751464844 L339.39459228515625,191.3938446044922 L337.6842041015625,191.2551727294922 L336.2824401855469,191.10015869140625 L335.3002014160156,190.95248413085938 L334.7680969238281,190.8451385498047 L334.572021484375,190.7830810546875 M361.4383544921875,183.0174102783203 L361.31402587890625,182.64944458007812 L360.9876708984375,182.10845947265625 L360.3809509277344,181.51687622070312 L359.4772644042969,181.06869506835938 L358.3130798339844,180.81153869628906 L356.9820556640625,180.763671875 L355.62060546875,180.914794921875 L354.37823486328125,181.25796508789062 L353.41510009765625,181.77561950683594 L352.85760498046875,182.4369354248047 L352.80450439453125,183.19281005859375 L353.3204650878906,183.98204040527344 L354.4212341308594,184.76853942871094 L356.05303955078125,185.52569580078125 L358.10406494140625,186.2607421875 L360.3381652832031,186.99742126464844 L362.5029296875,187.75143432617188 L364.37115478515625,188.51214599609375 L365.7648620605469,189.25079345703125 L366.6006164550781,189.92581176757812 L366.8788757324219,190.5067596435547 L366.5904846191406,190.97682189941406 L365.7679138183594,191.32327270507812 L364.4764099121094,191.54335021972656 L362.791259765625,191.62619018554688 L360.84295654296875,191.58322143554688 L358.7803649902344,191.43438720703125 L356.744384765625,191.2039794921875 L354.8749694824219,190.91937255859375 L353.2928771972656,190.61061096191406 L352.0660400390625,190.28823852539062 L351.31793212890625,189.94573974609375 L351.107421875,189.5750274658203 L351.4252624511719,189.17276000976562 L351.96466064453125,188.828369140625 L352.4529113769531,188.60108947753906 M370.85223388671875,182.29527282714844 L370.871826171875,182.33836364746094 L370.8913269042969,182.53306579589844 L370.8961181640625,182.97750854492188 L370.87396240234375,183.73182678222656 L370.82330322265625,184.77195739746094 L370.7527770996094,186.03697204589844 L370.68792724609375,187.44784545898438 L370.6719665527344,188.90374755859375 L370.7318115234375,190.26589965820312 L370.879150390625,191.3983917236328 L371.04302978515625,192.15310668945312 L371.16790771484375,192.5296173095703 M370.8345031738281,172.9667510986328 L370.7210693359375,172.69972229003906 L370.5994567871094,172.39111328125 L370.494384765625,172.13999938964844 L370.49896240234375,172.08956909179688 L370.6341247558594,172.2162322998047 L370.9292297363281,172.49240112304688 L371.2602844238281,172.7783203125 L371.53826904296875,173.00343322753906 M376.67828369140625,189.35560607910156 L377.1059875488281,189.30918884277344 L377.9405517578125,189.1664276123047 L379.16436767578125,188.87767028808594 L380.63751220703125,188.41246032714844 L382.2686767578125,187.78909301757812 L383.95574951171875,187.02178955078125 L385.5986633300781,186.14015197753906 L387.07275390625,185.19573974609375 L388.19329833984375,184.22787475585938 L388.8136901855469,183.2947998046875 L388.8373107910156,182.48153686523438 L388.22381591796875,181.8584442138672 L386.9949035644531,181.49851989746094 L385.26043701171875,181.47300720214844 L383.2037353515625,181.8003387451172 L381.0823974609375,182.47955322265625 L379.1626892089844,183.4602813720703 L377.6717529296875,184.64459228515625 L376.78564453125,185.92335510253906 L376.66241455078125,187.20028686523438 L377.4132385253906,188.3752899169922 L379.068359375,189.37486267089844 L381.55029296875,190.14002990722656 L384.6506042480469,190.6608123779297 L388.065673828125,190.9632568359375 L391.4687194824219,191.11036682128906 L394.58319091796875,191.1683807373047 L397.1629333496094,191.1709442138672 L399.063232421875,191.12986755371094 L400.2530212402344,191.05502319335938 L400.8359680175781,190.9725799560547 L401.01312255859375,190.9066162109375 M423.86468505859375,169.72885131835938 L423.902099609375,169.66712951660156 L423.9654541015625,169.69970703125 L424.04547119140625,169.9724884033203 L424.0999755859375,170.64178466796875 L424.0946350097656,171.76779174804688 L423.9986572265625,173.34828186035156 L423.80859375,175.3393096923828 L423.548828125,177.65530395507812 L423.2416076660156,180.17974853515625 L422.87982177734375,182.76983642578125 L422.4862365722656,185.26202392578125 L422.08148193359375,187.484130859375 L421.7115783691406,189.30740356445312 L421.46942138671875,190.59771728515625 L421.3603515625,191.33688354492188 L421.34075927734375,191.63829040527344 M430.07135009765625,182.455322265625 L430.1646728515625,182.11578369140625 L430.12347412109375,181.71914672851562 L429.76629638671875,181.44615173339844 L428.9136962890625,181.51573181152344 L427.56243896484375,181.960693359375 L425.8070068359375,182.74012756347656 L423.85284423828125,183.74789428710938 L421.9634704589844,184.8753662109375 L420.4207763671875,185.98622131347656 L419.450927734375,186.9710235595703 L419.21990966796875,187.7735137939453 L419.78131103515625,188.37646484375 L421.0981750488281,188.78765869140625 L423.05963134765625,189.0015869140625 L425.4605407714844,189.03213500976562 L428.05194091796875,188.9215545654297 L430.5765380859375,188.7258758544922 L432.83001708984375,188.5115966796875 L434.66607666015625,188.32077026367188 L436.0289306640625,188.15516662597656 L436.92486572265625,188.00962829589844 L437.42681884765625,187.8834228515625 L437.62530517578125,187.77752685546875 L437.646240234375,187.71011352539062 L437.57293701171875,187.7026824951172 L437.4764404296875,187.78280639648438 L437.4053955078125,187.9808807373047 L437.39068603515625,188.3134765625 L437.4530944824219,188.78172302246094 L437.6151123046875,189.3589630126953 L437.86016845703125,189.99905395507812 L438.17926025390625,190.5702667236328 L438.5538024902344,190.9319610595703 L438.937744140625,190.97250366210938 L439.246337890625,190.80401611328125 L439.4404296875,190.57757568359375 M437.53118896484375,176.42294311523438 L437.4970703125,176.2763214111328 L437.50970458984375,176.11679077148438 L437.5582275390625,175.9938201904297 L437.6316223144531,175.95687866210938 M451.2938232421875,183.3534698486328 L451.08612060546875,183.1217041015625 L450.5906677246094,182.76365661621094 L449.712890625,182.35968017578125 L448.45953369140625,182.0392608642578 L446.9637451171875,181.87001037597656 L445.41748046875,181.84344482421875 L444.06689453125,181.9412384033203 L443.1451416015625,182.16006469726562 L442.80126953125,182.4927215576172 L443.10986328125,182.92727661132812 L444.1130676269531,183.46786499023438 L445.75604248046875,184.09011840820312 L447.92388916015625,184.78709411621094 L450.413330078125,185.5542755126953 L452.95904541015625,186.36463928222656 L455.2913818359375,187.17628479003906 L457.1990966796875,187.9562225341797 L458.52960205078125,188.65829467773438 L459.21295166015625,189.24859619140625 L459.23785400390625,189.71690368652344 L458.6341552734375,190.06297302246094 L457.4535827636719,190.30064392089844 L455.77899169921875,190.45437622070312 L453.72161865234375,190.5306854248047 L451.43511962890625,190.5184326171875 L449.1251220703125,190.4252471923828 L446.97747802734375,190.2620391845703 L445.1669616699219,190.0669403076172 L443.82177734375,189.89491271972656 L442.99615478515625,189.78846740722656 L442.6095886230469,189.74368286132812 L442.515625,189.74388122558594 M468.55072021484375,183.50559997558594 L468.46966552734375,183.0513458251953 L468.1453857421875,182.37167358398438 L467.4324951171875,181.60130310058594 L466.26373291015625,180.97271728515625 L464.705810546875,180.5546417236328 L462.927490234375,180.3768310546875 L461.1572570800781,180.41693115234375 L459.647216796875,180.673095703125 L458.6085205078125,181.10926818847656 L458.2083740234375,181.69296264648438 L458.5350036621094,182.37413024902344 L459.6019287109375,183.11148071289062 L461.35223388671875,183.87867736816406 L463.6540222167969,184.6559600830078 L466.2807922363281,185.43875122070312 L468.95233154296875,186.2345428466797 L471.3535461425781,187.01661682128906 L473.2283630371094,187.74594116210938 L474.4247131347656,188.3827362060547 L474.8818664550781,188.88388061523438 L474.629150390625,189.23448181152344 L473.71539306640625,189.45034790039062 L472.1986083984375,189.5323944091797 L470.1904296875,189.4789581298828 L467.84246826171875,189.2913818359375 L465.3428955078125,188.97244262695312 L462.92755126953125,188.54519653320312 L460.79901123046875,188.05162048339844 L459.1234436035156,187.54904174804688 L457.98870849609375,187.09291076660156 L457.3703918457031,186.7625732421875 L457.12860107421875,186.5782928466797 M477.3492431640625,181.36798095703125 L477.41400146484375,181.39076232910156 L477.47186279296875,181.5240020751953 L477.4660339355469,181.8573760986328 L477.34844970703125,182.4564971923828 L477.14642333984375,183.32925415039062 L476.943115234375,184.42431640625 L476.8282775878906,185.65260314941406 L476.86102294921875,186.89581298828125 L477.0299072265625,188.02215576171875 L477.2776794433594,188.91981506347656 L477.49786376953125,189.4989013671875 L477.6397705078125,189.78050231933594 M477.84161376953125,175.36477661132812 L477.80572509765625,175.22824096679688 L477.7958679199219,175.11634826660156 L477.8108825683594,175.05865478515625 L477.8495788574219,175.08473205566406 M482.47021484375,188.4252166748047 L482.6029052734375,188.40846252441406 L482.9404296875,188.30889892578125 L483.5584411621094,188.08731079101562 L484.4779052734375,187.72393798828125 L485.64288330078125,187.24636840820312 L486.958251953125,186.66554260253906 L488.30133056640625,185.9975128173828 L489.5450439453125,185.25352478027344 L490.54888916015625,184.46726989746094 L491.2122802734375,183.68226623535156 L491.43206787109375,182.955078125 L491.16192626953125,182.3252410888672 L490.3924560546875,181.86541748046875 L489.15576171875,181.6395263671875 L487.53076171875,181.70848083496094 L485.6968688964844,182.10604858398438 L483.88092041015625,182.82093811035156 L482.337158203125,183.7974090576172 L481.30072021484375,184.98049926757812 L480.93280029296875,186.27133178710938 L481.3492431640625,187.56219482421875 L482.60821533203125,188.7460174560547 L484.67755126953125,189.73446655273438 L487.5313720703125,190.46160888671875 L490.9527587890625,190.91995239257812 L494.5885009765625,191.12635803222656 L497.56243896484375,191.16685485839844 L499.42401123046875,191.1326141357422 M520.8653564453125,165.06956481933594 L520.892578125,165.0 L520.90234375,165.0571746826172 L520.8547973632812,165.40167236328125 L520.737548828125,166.2044219970703 L520.5665893554688,167.5055694580078 L520.381103515625,169.29586791992188 L520.2232666015625,171.51414489746094 L520.1153564453125,174.0869598388672 L520.056640625,176.8888702392578 L520.0732421875,179.78561401367188 L520.1663818359375,182.59506225585938 L520.38818359375,185.16058349609375 L520.7924194335938,187.33074951171875 L521.3952026367188,189.0128936767578 L521.99169921875,190.09495544433594 L522.437744140625,190.64015197753906 M535.763671875,184.17616271972656 L535.662109375,183.56997680664062 L535.394775390625,182.6753692626953 L534.87353515625,181.6954803466797 L534.0333862304688,180.9507293701172 L532.8783569335938,180.54254150390625 L531.4588623046875,180.52464294433594 L529.89892578125,180.87249755859375 L528.3624877929688,181.5819091796875 L527.0298461914062,182.60440063476562 L526.0571899414062,183.86434936523438 L525.59423828125,185.24972534179688 L525.7108764648438,186.63214111328125 L526.4421997070312,187.8673858642578 L527.7284545898438,188.8235626220703 L529.468017578125,189.39210510253906 L531.493408203125,189.5276336669922 L533.5965576171875,189.2162322998047 L535.5650634765625,188.50875854492188 L537.2291259765625,187.50331115722656 L538.4435424804688,186.32574462890625 L539.1648559570312,185.1139678955078 L539.4093017578125,183.9989013671875 L539.2310180664062,183.07078552246094 L538.714111328125,182.43533325195312 L537.982666015625,182.15110778808594 L537.1607055664062,182.2157745361328 L536.4827880859375,182.4549560546875 L536.0640869140625,182.6986846923828 M542.64501953125,181.9095458984375 L542.618896484375,181.75743103027344 L542.6021728515625,181.62120056152344 L542.618896484375,181.63140869140625 L542.7063598632812,181.947998046875 L542.8727416992188,182.61968994140625 L543.177734375,183.63832092285156 L543.6529541015625,184.9086151123047 L544.3256225585938,186.29884338378906 L545.1878051757812,187.63087463378906 L546.200439453125,188.73126220703125 L547.2943115234375,189.4449920654297 L548.4285888671875,189.67184448242188 L549.5623168945312,189.3515167236328 L550.6632080078125,188.49462890625 L551.696044921875,187.17938232421875 L552.609130859375,185.5426788330078 L553.33837890625,183.75384521484375 L553.8505859375,182.01382446289062 L554.1410522460938,180.47738647460938 L554.25,179.320556640625 L554.249267578125,178.65292358398438 L554.20947265625,178.4879150390625 L554.17138671875,178.62002563476562 L554.15576171875,178.84222412109375 M558.50341796875,186.5572052001953 L559.0703125,186.35145568847656 L560.0126342773438,185.94122314453125 L561.2355346679688,185.3129425048828 L562.48486328125,184.52420043945312 L563.6182861328125,183.6356658935547 L564.5159912109375,182.73085021972656 L565.1175537109375,181.87684631347656 L565.325439453125,181.13197326660156 L565.1070556640625,180.56365966796875 L564.4561767578125,180.24368286132812 L563.3948974609375,180.24411010742188 L562.0166625976562,180.61000061035156 L560.49853515625,181.33270263671875 L559.0333251953125,182.35821533203125 L557.85009765625,183.60975646972656 L557.1865844726562,184.98684692382812 L557.213134765625,186.36607360839844 L558.035888671875,187.63064575195312 L559.6406860351562,188.66702270507812 L561.987060546875,189.404052734375 L564.8480834960938,189.83786010742188 L567.92431640625,190.01296997070312 L570.4503173828125,190.02984619140625 L572.041748046875,189.9912872314453 M585.3035278320312,180.77113342285156 L585.501220703125,180.79000854492188 L585.802734375,180.89959716796875 L586.1710205078125,181.18106079101562 L586.5341186523438,181.71299743652344 L586.8987426757812,182.53439331054688 L587.2760009765625,183.62646484375 L587.7113037109375,184.9210205078125 L588.2454833984375,186.30368041992188 L588.9495849609375,187.63034057617188 L589.885498046875,188.75421142578125 L591.094482421875,189.53469848632812 L592.5669555664062,189.86151123046875 L594.2591552734375,189.6987762451172 L596.0732421875,189.064453125 L597.878662109375,188.0484161376953 L599.5501708984375,186.7851104736328 L600.962158203125,185.42190551757812 L602.0198974609375,184.1285858154297 L602.69287109375,183.0570526123047 L603.0078735351562,182.29931640625 L602.9955444335938,181.9263916015625 L602.7265625,181.97900390625 L602.206787109375,182.490234375 L601.4293212890625,183.5193328857422 L600.396484375,185.0758514404297 L599.1373291015625,187.09506225585938 L597.699951171875,189.48475646972656 L596.1862182617188,192.1400604248047 L594.6732177734375,194.9717254638672 L593.2396240234375,197.9001922607422 L591.9737548828125,200.8144989013672 L590.9523315429688,203.53146362304688 L590.239990234375,205.8328094482422 L589.8613891601562,207.5540771484375 L589.7344970703125,208.60009765625 L589.73974609375,209.07186889648438 M609.992919921875,185.4833526611328 L610.0419921875,185.01071166992188 L609.9923095703125,184.3240203857422 L609.7117919921875,183.58934020996094 L609.060302734375,183.07888793945312 L607.9928588867188,182.90567016601562 L606.5518798828125,183.13775634765625 L604.894287109375,183.7733612060547 L603.224365234375,184.77488708496094 L601.8177490234375,186.03964233398438 L600.9169311523438,187.4360809326172 L600.6917724609375,188.82716369628906 L601.1905517578125,190.06320190429688 L602.3696899414062,191.01673889160156 L604.0823974609375,191.58245849609375 L606.1513671875,191.69102478027344 L608.350341796875,191.33248901367188 L610.4526977539062,190.55555725097656 L612.2384033203125,189.439208984375 L613.5616455078125,188.1204376220703 L614.3792724609375,186.76171875 L614.7198486328125,185.51077270507812 L614.6541748046875,184.4848175048828 L614.3053588867188,183.75827026367188 L613.8032836914062,183.35716247558594 L613.2711181640625,183.29835510253906 L612.8574829101562,183.56813049316406 L612.660400390625,184.10986328125 L612.7440185546875,184.80517578125 L613.16748046875,185.5005645751953 L613.9559936523438,186.04237365722656 L615.0645751953125,186.32473754882812 L616.434326171875,186.2894287109375 L617.9451904296875,185.93101501464844 L619.433349609375,185.3021697998047 L620.7432861328125,184.53280639648438 L621.7562866210938,183.76454162597656 L622.3807373046875,183.1370849609375 L622.6196899414062,182.7531280517578 L622.5224609375,182.66636657714844 L622.1634521484375,182.92100524902344 L621.6472778320312,183.56436157226562 L621.111083984375,184.55186462402344 L620.7144775390625,185.7823486328125 L620.6223754882812,187.09341430664062 L620.9613037109375,188.3059539794922 L621.8006591796875,189.2673797607422 L623.127685546875,189.8830108642578 L624.8680419921875,190.0937957763672 L626.9096069335938,189.89950561523438 L629.092529296875,189.34129333496094 L631.22607421875,188.50265502929688 L633.1456909179688,187.4835662841797 L634.6947631835938,186.40089416503906 L635.7979125976562,185.38827514648438 L636.4737548828125,184.54747009277344 L636.7896728515625,183.96365356445312 L636.8284301757812,183.68585205078125 L636.6859130859375,183.7418670654297 L636.3900756835938,184.14285278320312 L636.0105590820312,184.94361877441406 L635.6572265625,186.0880889892578 L635.42138671875,187.45355224609375 L635.322021484375,188.6416015625 L635.3297119140625,189.41708374023438 M657.0031127929688,168.6648406982422 L657.039794921875,168.6611328125 L657.08251953125,168.83615112304688 L657.107421875,169.35626220703125 L657.0620727539062,170.35211181640625 L656.918212890625,171.8362579345703 L656.6781005859375,173.7459259033203 L656.356689453125,175.99087524414062 L655.995361328125,178.4580841064453 L655.6478271484375,181.03579711914062 L655.32421875,183.5687255859375 L655.0634765625,185.8816680908203 L654.866455078125,187.78504943847656 L654.7572021484375,189.13687133789062 L654.7750244140625,189.85552978515625 L654.9819946289062,189.96115112304688 L655.4158935546875,189.49671936035156 L656.155517578125,188.55007934570312 L657.1895751953125,187.23175048828125 L658.4979248046875,185.6883087158203 L660.016845703125,184.08689880371094 L661.651123046875,182.62799072265625 L663.2611083984375,181.4593505859375 L664.7409057617188,180.68814086914062 L665.992431640625,180.3708953857422 L666.9671020507812,180.524658203125 L667.6683349609375,181.12548828125 L668.1190185546875,182.1253662109375 L668.3712158203125,183.4588623046875 L668.506103515625,184.9874267578125 L668.6199951171875,186.53659057617188 L668.7244262695312,187.75918579101562 L668.816162109375,188.49859619140625 M681.3218383789062,184.44320678710938 L681.2298583984375,183.8943328857422 L680.9656372070312,183.07620239257812 L680.44189453125,182.16424560546875 L679.6055908203125,181.44789123535156 L678.4332275390625,181.0161895751953 L676.9760131835938,180.92868041992188 L675.3489990234375,181.18399047851562 L673.7456665039062,181.7986602783203 L672.3876953125,182.72946166992188 L671.4722900390625,183.88961791992188 L671.1175537109375,185.1380157470703 L671.36572265625,186.3260498046875 L672.18115234375,187.31008911132812 L673.4801025390625,187.97976684570312 L675.1193237304688,188.24575805664062 L676.9215087890625,188.07852172851562 L678.697509765625,187.50733947753906 L680.2623291015625,186.6268310546875 L681.4800415039062,185.57713317871094 L682.2857666015625,184.49819946289062 L682.697021484375,183.5004119873047 L682.7892456054688,182.70188903808594 L682.7227783203125,182.1820831298828 L682.6223754882812,181.9274444580078 M685.7628173828125,181.6141357421875 L685.767333984375,181.67628479003906 L685.7744140625,181.8609619140625 L685.7872314453125,182.22862243652344 L685.7975463867188,182.79800415039062 L685.8015747070312,183.54051208496094 L685.8038940429688,184.38265991210938 L685.8507080078125,185.24935913085938 L685.9536743164062,186.05226135253906 L686.13134765625,186.70140075683594 L686.36962890625,187.0995330810547 L686.6700439453125,187.17288208007812 L687.0518798828125,186.86643981933594 L687.59228515625,186.19625854492188 L688.3241577148438,185.2394256591797 L689.271728515625,184.12489318847656 L690.411865234375,183.001953125 L691.686767578125,182.02731323242188 L693.0028076171875,181.3025360107422 L694.2781372070312,180.89793395996094 L695.4288940429688,180.83351135253906 L696.4088745117188,181.11093139648438 L697.210205078125,181.71090698242188 L697.8353881835938,182.59461975097656 L698.3136596679688,183.69781494140625 L698.6846923828125,184.899658203125 L698.9876708984375,186.0357666015625 L699.2084350585938,186.8810577392578 L699.3458251953125,187.3587188720703 M700.9622802734375,187.84559631347656 L701.0240478515625,187.78729248046875 L701.2890625,187.63804626464844 L701.8770141601562,187.36959838867188 L702.8353271484375,186.9845428466797 L704.091796875,186.49569702148438 L705.5187377929688,185.9042510986328 L706.9671020507812,185.21607971191406 L708.2799072265625,184.4390411376953 L709.3106079101562,183.61154174804688 L709.9410400390625,182.78968811035156 L710.0933837890625,182.04672241210938 L709.7382202148438,181.44508361816406 L708.9039306640625,181.05503845214844 L707.6739501953125,180.9373016357422 L706.177001953125,181.13934326171875 L704.6070556640625,181.65943908691406 L703.19287109375,182.4706268310547 L702.1239013671875,183.49954223632812 L701.546630859375,184.67149353027344 L701.5347900390625,185.88185119628906 L702.0919189453125,187.02203369140625 L703.185791015625,187.96998596191406 L704.7642822265625,188.64581298828125 L706.7429809570312,188.97720336914062 L708.9515991210938,188.9775390625 L711.14599609375,188.6998291015625 L712.8515625,188.3470916748047 L713.86376953125,188.06358337402344 M712.6141357421875,183.11131286621094 L712.62646484375,183.24363708496094 L712.7405395507812,183.54791259765625 L713.0147094726562,184.06195068359375 L713.5040283203125,184.76319885253906 L714.206787109375,185.58926391601562 L715.10302734375,186.4478302001953 L716.177001953125,187.24159240722656 L717.4449462890625,187.84173583984375 L718.8546142578125,188.14866638183594 L720.34228515625,188.13267517089844 L721.5709228515625,187.93988037109375 L722.3529663085938,187.72398376464844 M726.7113037109375,183.42800903320312 L726.6077880859375,183.29981994628906 L726.3697509765625,183.2232666015625 L725.9384155273438,183.33282470703125 L725.291015625,183.76673889160156 L724.414794921875,184.5196075439453 L723.353271484375,185.55038452148438 L722.1749267578125,186.780029296875 L720.9549560546875,188.1417694091797 L719.7670288085938,189.5651092529297 L718.6793212890625,190.99130249023438 L717.7296142578125,192.35470581054688 L716.9462890625,193.58560180664062 L716.349853515625,194.61888122558594 L715.96337890625,195.33583068847656 L715.7657470703125,195.7227783203125 " fill="none" stroke="black" stroke-linecap="round" stroke-width="2" /></svg>