<?xml version="1.0" encoding="utf-8" ?>
<svg baseProfile="full" height="100%" version="1.1" viewBox="0,0,1000,180" width="100%" xmlns="http://www.w3.org/2000/svg" xmlns:ev="http://www.w3.org/2001/xml-events" xmlns:xlink="http://www.w3.org/1999/xlink"><defs /><rect fill="white" height="180" width="1000" x="0" y="0" /><path d="M0,0 M403.1086730957031,49.34980773925781 L403.13006591796875,49.23822784423828 L403.20306396484375,49.21409225463867 L403.32537841796875,49.44660186767578 L403.4861755371094,50.11923599243164 L403.640380859375,51.29832458496094 L403.7394714355469,52.97269821166992 L403.70123291015625,55.081703186035156 L403.5411376953125,57.57377624511719 L403.2674560546875,60.350406646728516 L402.9621887207031,63.28315734863281 L402.70428466796875,66.19823455810547 L402.5787048339844,68.88302612304688 L402.5989685058594,71.12029266357422 L402.7821044921875,72.76741790771484 L403.00628662109375,73.75345611572266 L403.1885986328125,74.1924057006836 M419.1630554199219,51.48247528076172 L419.4219055175781,51.1069221496582 L419.675537109375,50.69733428955078 L419.7174072265625,50.44915771484375 L419.32122802734375,50.57960510253906 L418.46630859375,51.09468460083008 L417.1676330566406,51.9383544921875 L415.5020446777344,53.00217819213867 L413.54595947265625,54.221778869628906 L411.359130859375,55.475257873535156 L409.0500183105469,56.65293502807617 L406.7989196777344,57.683109283447266 L404.7893371582031,58.508689880371094 L403.2020263671875,59.1072883605957 L402.15948486328125,59.50661849975586 L401.64288330078125,59.75114059448242 L401.59161376953125,59.93041229248047 L401.9526672363281,60.128623962402344 L402.6658020019531,60.415863037109375 L403.70062255859375,60.83732604980469 L405.0051574707031,61.4203987121582 L406.4648132324219,62.155330657958984 L407.9818115234375,63.03721237182617 L409.4916687011719,64.04341125488281 L410.9293212890625,65.14789581298828 L412.260986328125,66.30742645263672 L413.43060302734375,67.46768951416016 L414.36993408203125,68.5606460571289 L415.05010986328125,69.50975036621094 L415.4905700683594,70.24015808105469 L415.7418518066406,70.71055603027344 L415.8668212890625,70.94197082519531 L415.9186706542969,71.00821685791016 M420.05682373046875,60.99747848510742 L420.06231689453125,60.85372543334961 L420.1095275878906,60.748008728027344 L420.2052307128906,60.7968864440918 L420.34625244140625,61.14169692993164 L420.51019287109375,61.80044937133789 L420.7015686035156,62.77431106567383 L420.9320373535156,64.0239486694336 L421.2179870605469,65.49452209472656 L421.5652160644531,67.08014678955078 L421.993896484375,68.67469787597656 L422.4953918457031,70.14566802978516 L423.0343017578125,71.38749694824219 L423.5497131347656,72.291259765625 L424.0055236816406,72.77274322509766 L424.41290283203125,72.76415252685547 L424.869873046875,72.24415588378906 L425.4469909667969,71.2299575805664 L426.16522216796875,69.80760192871094 L426.9791259765625,68.08090209960938 L427.7999267578125,66.18451690673828 L428.5219421386719,64.25713348388672 L429.0923767089844,62.44623565673828 L429.46588134765625,60.87430191040039 L429.6600646972656,59.706546783447266 L429.7375183105469,59.04038619995117 L429.773193359375,58.891448974609375 L429.8000183105469,59.048885345458984 L429.8333435058594,59.29222106933594 M442.0828552246094,66.46674346923828 L442.08172607421875,65.97449493408203 L441.998046875,65.16172790527344 L441.7431640625,64.14263153076172 L441.238037109375,63.148468017578125 L440.4378662109375,62.29624557495117 L439.3369140625,61.6642951965332 L437.961181640625,61.3010139465332 L436.3895263671875,61.28127670288086 L434.70941162109375,61.65015411376953 L433.05963134765625,62.414119720458984 L431.5643615722656,63.53324890136719 L430.36077880859375,64.92402648925781 L429.5857849121094,66.47410583496094 L429.36248779296875,68.03988647460938 L429.74871826171875,69.44412994384766 L430.76422119140625,70.51748657226562 L432.31298828125,71.11654663085938 L434.245849609375,71.1501693725586 L436.38458251953125,70.58604431152344 L438.5591735839844,69.4469985961914 L440.6208190917969,67.79443359375 L442.4783935546875,65.72010803222656 L444.05133056640625,63.32942199707031 L445.2997741699219,60.746517181396484 L446.2320861816406,58.11573028564453 L446.8719482421875,55.587406158447266 L447.26776123046875,53.31960678100586 L447.471923828125,51.442657470703125 L447.5390930175781,50.02958297729492 L447.5191955566406,49.13226318359375 L447.4739074707031,48.79057693481445 L447.4124755859375,49.014610290527344 L447.35809326171875,49.84004592895508 L447.28302001953125,51.260868072509766 L447.19366455078125,53.19241714477539 L447.09576416015625,55.51082229614258 L447.00469970703125,58.059043884277344 L446.9217529296875,60.65263366699219 L446.88641357421875,63.15422439575195 L446.9120788574219,65.43215942382812 L447.02154541015625,67.34671020507812 L447.1988220214844,68.80081176757812 L447.4003601074219,69.75121307373047 L447.58465576171875,70.19152069091797 L447.7528076171875,70.2170639038086 L447.93218994140625,69.96691131591797 L448.0953369140625,69.65026092529297 L448.2174072265625,69.41122436523438 M486.63739013671875,57.01475524902344 L486.862548828125,56.25818634033203 L487.09039306640625,55.021697998046875 L487.1692810058594,53.448272705078125 L486.9256591796875,51.83210754394531 L486.32635498046875,50.24479675292969 L485.4187316894531,48.74953079223633 L484.2796630859375,47.39378356933594 L482.95257568359375,46.25227737426758 L481.520751953125,45.4256477355957 L480.065185546875,45.0 L478.65814208984375,45.0385627746582 L477.37957763671875,45.61872482299805 L476.26971435546875,46.781959533691406 L475.30682373046875,48.514442443847656 L474.5003662109375,50.779685974121094 L473.85498046875,53.497894287109375 L473.3909912109375,56.554786682128906 L473.14349365234375,59.84428787231445 L473.12237548828125,63.219120025634766 L473.26580810546875,66.50227355957031 L473.5238037109375,69.50971221923828 L473.80938720703125,72.0596694946289 L474.0682678222656,74.04566955566406 L474.24395751953125,75.37528228759766 L474.2933349609375,76.02828216552734 L474.18878173828125,76.06258392333984 L474.0215759277344,75.77896881103516 L473.8633117675781,75.44058227539062 M467.66156005859375,62.83258819580078 L468.03521728515625,62.745758056640625 L468.82000732421875,62.637786865234375 L470.0445861816406,62.545658111572266 L471.61932373046875,62.505245208740234 L473.447509765625,62.49689865112305 L475.4405212402344,62.47941207885742 L477.5162048339844,62.417823791503906 L479.62701416015625,62.29296875 L481.63751220703125,62.10520553588867 L483.41961669921875,61.87320327758789 L484.7054748535156,61.667301177978516 L485.4303283691406,61.528446197509766 M487.0373840332031,59.74388122558594 L486.94647216796875,59.78818130493164 L486.8231201171875,59.96498107910156 L486.6988830566406,60.36518859863281 L486.6141357421875,61.04143524169922 L486.5865478515625,61.99526596069336 L486.6399841308594,63.179813385009766 L486.811279296875,64.50811004638672 L487.1448669433594,65.88166809082031 L487.6773681640625,67.17984008789062 L488.420654296875,68.2657470703125 L489.3744201660156,69.01951599121094 L490.5073547363281,69.35112762451172 L491.77093505859375,69.2181167602539 L493.06524658203125,68.63634490966797 L494.3004455566406,67.67182159423828 L495.3763427734375,66.42231750488281 L496.22064208984375,64.99939727783203 L496.80328369140625,63.54077911376953 L497.1429443359375,62.202701568603516 L497.2846984863281,61.111026763916016 L497.3123779296875,60.371551513671875 L497.27215576171875,60.024478912353516 L497.19842529296875,60.05311965942383 L497.11663818359375,60.437252044677734 L497.04730224609375,61.16408920288086 L497.02374267578125,62.178955078125 L497.0795593261719,63.40385437011719 L497.2341613769531,64.72380065917969 L497.48876953125,66.0073013305664 L497.8335266113281,67.15013885498047 L498.2289733886719,68.10404968261719 L498.6595458984375,68.85291290283203 L499.0952453613281,69.39532470703125 L499.53369140625,69.75650024414062 L499.88726806640625,69.95813751220703 L500.1181640625,70.04113006591797 M511.3785400390625,61.95783996582031 L511.2960510253906,61.64009475708008 L511.07830810546875,61.169471740722656 L510.6451416015625,60.66096115112305 L509.9371337890625,60.30337142944336 L508.92657470703125,60.177337646484375 L507.66510009765625,60.34208297729492 L506.26055908203125,60.804168701171875 L504.869384765625,61.560516357421875 L503.66229248046875,62.56172180175781 L502.7908935546875,63.740638732910156 L502.3731689453125,65.01024627685547 L502.4850769042969,66.276611328125 L503.1549072265625,67.43873596191406 L504.3541564941406,68.40007781982422 L506.009521484375,69.06595611572266 L508.0450134277344,69.35372161865234 L510.2872314453125,69.24697875976562 L512.5203857421875,68.79933166503906 L514.2733154296875,68.27293395996094 L515.3308715820312,67.86709594726562 M518.37890625,47.539363861083984 L518.493408203125,47.49440002441406 L518.6663208007812,47.579856872558594 L518.8525390625,47.949440002441406 L518.9727783203125,48.73784637451172 L518.9837036132812,49.97343444824219 L518.8831787109375,51.62836456298828 L518.70654296875,53.6330451965332 L518.4788818359375,55.89598083496094 L518.2254638671875,58.2888298034668 L517.9735107421875,60.653690338134766 L517.7279052734375,62.82024383544922 L517.54150390625,64.63606262207031 L517.46484375,65.99238586425781 L517.5181274414062,66.86016082763672 L517.6351318359375,67.30026245117188 L517.7564697265625,67.45218658447266 M522.600341796875,60.492279052734375 L522.5758056640625,60.21506881713867 L522.406494140625,59.87086486816406 L521.960693359375,59.611549377441406 L521.1311645507812,59.636146545410156 L519.9114379882812,60.014469146728516 L518.424560546875,60.734107971191406 L516.87744140625,61.71855163574219 L515.53466796875,62.88844299316406 L514.6287841796875,64.12096405029297 L514.3378295898438,65.28742980957031 L514.7428588867188,66.28318786621094 L515.8466186523438,67.01007080078125 L517.5576782226562,67.42284393310547 L519.71435546875,67.534423828125 L522.080810546875,67.38742065429688 L524.4293212890625,67.04353332519531 L526.5159912109375,66.55833435058594 L528.1903076171875,65.948974609375 L529.4000854492188,65.2354965209961 L530.1548461914062,64.44454956054688 L530.5242919921875,63.63594055175781 L530.6420288085938,62.897220611572266 L530.6004638671875,62.31169128417969 L530.4982299804688,61.93813705444336 L530.41552734375,61.834251403808594 L530.3614501953125,62.03042984008789 L530.3286743164062,62.54019546508789 L530.3414916992188,63.34247970581055 L530.4149169921875,64.3634262084961 L530.5631103515625,65.4910888671875 L530.8017578125,66.5782699584961 L531.091796875,67.47003173828125 L531.3807373046875,68.05780029296875 L531.6038208007812,68.3453369140625 L531.7360229492188,68.42041015625 M530.002685546875,51.751792907714844 L529.9817504882812,51.53617858886719 L529.9908447265625,51.288665771484375 L530.0225830078125,51.08761978149414 L530.0694580078125,51.011436462402344 M536.7213745117188,61.645912170410156 L536.7579345703125,61.45102310180664 L536.8090209960938,61.203861236572266 L536.8670043945312,61.02043533325195 L536.9152221679688,61.036399841308594 L536.9580078125,61.34114456176758 L536.9900512695312,61.96537780761719 L537.0117797851562,62.87575912475586 L537.0438842773438,63.988609313964844 L537.114990234375,65.1827163696289 L537.2188720703125,66.27635192871094 L537.3479614257812,67.1707534790039 L537.49169921875,67.76343536376953 L537.6426391601562,67.98267364501953 L537.8536376953125,67.79330444335938 L538.185791015625,67.21771240234375 L538.6630249023438,66.30699157714844 L539.301025390625,65.19135284423828 L540.103515625,63.990013122558594 L541.0429077148438,62.81866455078125 L542.0938720703125,61.77915573120117 L543.2177734375,60.959232330322266 L544.360595703125,60.42420196533203 L545.4713134765625,60.230194091796875 L546.5056762695312,60.395790100097656 L547.404541015625,60.91747283935547 L548.1224365234375,61.757171630859375 L548.623779296875,62.83684539794922 L548.9285888671875,64.07971954345703 L549.1036376953125,65.3840103149414 L549.2281494140625,66.63371276855469 L549.323486328125,67.5927963256836 L549.3995361328125,68.1676254272461 M574.033203125,62.153709411621094 M570.6837158203125,60.95564270019531 L570.0857543945312,60.979698181152344 L569.2222290039062,61.059715270996094 L568.316650390625,61.23186492919922 L567.7083740234375,61.528282165527344 L567.5204467773438,61.95529556274414 L567.8486328125,62.49287033081055 L568.6905517578125,63.097679138183594 L570.03662109375,63.72321701049805 L571.8084716796875,64.33642578125 L573.8308715820312,64.937744140625 L575.871337890625,65.52464294433594 L577.7108154296875,66.10974884033203 L579.1502685546875,66.684326171875 L580.065673828125,67.23016357421875 L580.4187622070312,67.72683715820312 L580.2091064453125,68.1653823852539 L579.4334716796875,68.52479553222656 L578.1141967773438,68.79888916015625 L576.284423828125,68.9583969116211 L574.038330078125,68.98008728027344 L571.5504150390625,68.85846710205078 L569.045166015625,68.61895751953125 L566.7639770507812,68.2701416015625 L564.9244384765625,67.84185028076172 L563.65869140625,67.36226654052734 L562.9649047851562,66.94986724853516 L562.7033081054688,66.67633056640625 M584.4072265625,50.87261962890625 L584.4904174804688,51.27344512939453 L584.602783203125,52.07341766357422 L584.7110595703125,53.293731689453125 L584.7678833007812,54.8364143371582 L584.7742919921875,56.62905502319336 L584.739990234375,58.576480865478516 L584.70263671875,60.60126495361328 L584.662841796875,62.5860710144043 L584.6265258789062,64.38462829589844 L584.598876953125,65.87742614746094 L584.5922241210938,66.97514343261719 L584.6593627929688,67.62319946289062 L584.8817138671875,67.81535339355469 L585.3155517578125,67.560302734375 L586.005859375,66.89517211914062 L586.9590454101562,65.92512512207031 L588.1231079101562,64.78337860107422 L589.4437866210938,63.62466049194336 L590.8539428710938,62.59016036987305 L592.271484375,61.78733444213867 L593.6167602539062,61.27577590942383 L594.8208618164062,61.10318374633789 L595.822509765625,61.278602600097656 L596.5697631835938,61.80432891845703 L597.052490234375,62.653907775878906 L597.2962646484375,63.76629638671875 L597.3570556640625,65.02510833740234 L597.3695068359375,66.29328155517578 L597.457275390625,67.40372467041016 L597.6736450195312,68.24526977539062 L597.9368896484375,68.75775146484375 L598.1546020507812,68.99028778076172 M602.6904296875,63.4827766418457 L602.7109375,63.4843864440918 L602.7542724609375,63.60379409790039 L602.8091430664062,63.93098068237305 L602.8534545898438,64.51978302001953 L602.8594970703125,65.32853698730469 L602.846923828125,66.28419494628906 L602.8414916992188,67.30463409423828 L602.8929443359375,68.22962188720703 L603.02490234375,68.9052734375 L603.231689453125,69.20933532714844 L603.4313354492188,69.21978759765625 L603.5753173828125,69.08882141113281 M602.3543701171875,53.72831726074219 L602.2688598632812,53.20207595825195 L602.1836547851562,52.52452087402344 L602.1218872070312,51.912227630615234 L602.1439208984375,51.62994384765625 L602.2514038085938,51.65819549560547 L602.4527587890625,51.908538818359375 L602.6654052734375,52.18360900878906 L602.8397827148438,52.39018249511719 M613.138671875,49.172271728515625 L613.1531372070312,49.18449401855469 L613.1318359375,49.37358093261719 L613.0516357421875,49.896602630615234 L612.89892578125,50.869651794433594 L612.683837890625,52.285621643066406 L612.45947265625,54.08317947387695 L612.24169921875,56.15663528442383 L612.0497436523438,58.38289260864258 L611.9154052734375,60.653141021728516 L611.8505859375,62.84996032714844 L611.8585205078125,64.83792877197266 L611.9466552734375,66.49215698242188 L612.0811157226562,67.7288589477539 L612.2357177734375,68.51669311523438 L612.3671264648438,68.91665649414062 L612.4482421875,69.05860137939453 M607.5232543945312,60.92476272583008 L607.5385131835938,60.64162826538086 L607.74169921875,60.2477912902832 L608.2794799804688,59.85034942626953 L609.2642822265625,59.59539031982422 L610.6990356445312,59.496726989746094 L612.5443725585938,59.53373336791992 L614.6928100585938,59.66550064086914 L617.0322875976562,59.86919021606445 L619.431640625,60.13276672363281 L621.7657470703125,60.449214935302734 L623.9393310546875,60.81188201904297 L625.8601684570312,61.201255798339844 L627.4644775390625,61.59623336791992 L628.5829467773438,61.91095733642578 L629.2010498046875,62.10652542114258 " fill="none" stroke="black" stroke-linecap="round" stroke-width="0.5" /><path d="M0,0 M398.3394775390625,117.63728332519531 L398.3212585449219,117.52743530273438 L398.2908020019531,117.4212417602539 L398.2304382324219,117.43608856201172 L398.11346435546875,117.73103332519531 L397.88934326171875,118.41263580322266 L397.5649108886719,119.51164245605469 L397.1735534667969,120.96127319335938 L396.80487060546875,122.6561279296875 L396.59442138671875,124.44984436035156 L396.6747131347656,126.19387817382812 L397.15234375,127.76032257080078 L398.0760498046875,129.00656127929688 L399.43853759765625,129.80967712402344 L401.1751708984375,130.09915161132812 L403.20379638671875,129.8498077392578 L405.39544677734375,129.09786987304688 L407.6239929199219,127.93303680419922 L409.7253112792969,126.44371032714844 L411.56890869140625,124.7408676147461 L413.05364990234375,122.95164489746094 L414.1422119140625,121.22108459472656 L414.83746337890625,119.70439910888672 L415.20343017578125,118.52788543701172 L415.3012390136719,117.75323486328125 L415.2193908691406,117.40861511230469 L415.0422058105469,117.49192810058594 L414.8396301269531,118.0226821899414 L414.64501953125,119.00011444091797 L414.4692077636719,120.36505889892578 L414.3194274902344,121.99800872802734 L414.21075439453125,123.74260711669922 L414.19256591796875,125.42889404296875 L414.3109130859375,126.92042541503906 L414.5679016113281,128.10997009277344 L414.8473205566406,128.8883819580078 L415.064697265625,129.28172302246094 M430.7012634277344,120.28713989257812 L430.6412048339844,119.75007629394531 L430.3776550292969,118.9572982788086 L429.7471923828125,118.07794952392578 L428.6587829589844,117.40389251708984 L427.15655517578125,117.02935028076172 L425.4115905761719,116.99725341796875 L423.6627502441406,117.25933837890625 L422.18994140625,117.80094909667969 L421.1805725097656,118.5570068359375 L420.7823181152344,119.47306060791016 L421.062744140625,120.47700500488281 L422.0151672363281,121.49689483642578 L423.546630859375,122.46443176269531 L425.5236511230469,123.37110137939453 L427.7368469238281,124.23504638671875 L429.9496765136719,125.08267211914062 L431.91290283203125,125.91192626953125 L433.40380859375,126.68402099609375 L434.26312255859375,127.34375762939453 L434.4112548828125,127.86245727539062 L433.8612060546875,128.24815368652344 L432.6502990722656,128.51161193847656 L430.8759765625,128.67422485351562 L428.6779479980469,128.73519897460938 L426.2610168457031,128.6870574951172 L423.8435974121094,128.52536010742188 L421.6385498046875,128.26678466796875 L419.8533935546875,127.90953063964844 L418.651611328125,127.48799133300781 L418.0853576660156,127.03663635253906 L417.98272705078125,126.66456604003906 L418.10321044921875,126.42752075195312 M437.81353759765625,125.23694610595703 L438.1882629394531,125.11138153076172 L438.9375915527344,124.83832550048828 L440.07757568359375,124.38787841796875 L441.4937438964844,123.77039337158203 L443.07110595703125,123.00934600830078 L444.6439514160156,122.15995788574219 L446.0324401855469,121.28048706054688 L447.0896301269531,120.43315887451172 L447.6842346191406,119.66644287109375 L447.75006103515625,119.02581787109375 L447.2666015625,118.55924987792969 L446.2557678222656,118.34005737304688 L444.7889404296875,118.43426513671875 L442.99853515625,118.88381958007812 L441.0816650390625,119.68258666992188 L439.27850341796875,120.79061126708984 L437.8099365234375,122.1175537109375 L436.86761474609375,123.55347442626953 L436.58258056640625,124.97681427001953 L436.99981689453125,126.24911499023438 L438.1365966796875,127.25544738769531 L439.94232177734375,127.92193603515625 L442.2784118652344,128.23025512695312 L445.01904296875,128.17286682128906 L447.9244079589844,127.80174255371094 L450.7065734863281,127.17631530761719 L452.8327331542969,126.55204772949219 L454.09228515625,126.0973892211914 M458.85406494140625,106.22600555419922 L458.8897399902344,105.7696304321289 L458.9205017089844,105.27513885498047 L458.9034729003906,105.0 L458.8262023925781,105.25222778320312 L458.7164306640625,106.08390808105469 L458.5838317871094,107.44219970703125 L458.4231262207031,109.24651336669922 L458.2171630859375,111.44898223876953 L457.9256591796875,113.9336929321289 L457.56988525390625,116.57795715332031 L457.2123718261719,119.24581146240234 L456.919921875,121.78288269042969 L456.76544189453125,124.04459381103516 L456.77642822265625,125.90994262695312 L456.8743591308594,127.18004608154297 L456.9817199707031,127.8586654663086 M460.5177307128906,126.01861572265625 L460.58837890625,125.94802856445312 L460.89801025390625,125.79801177978516 L461.582763671875,125.5352554321289 L462.69158935546875,125.14722442626953 L464.13873291015625,124.61534881591797 L465.76373291015625,123.92770385742188 L467.41033935546875,123.1119613647461 L468.9256591796875,122.2071533203125 L470.17730712890625,121.25686645507812 L471.05047607421875,120.32833099365234 L471.4478759765625,119.4773178100586 L471.3282470703125,118.78363037109375 L470.70404052734375,118.34011840820312 L469.5898742675781,118.21733856201172 L468.0636901855469,118.44991302490234 L466.2846984863281,119.03792572021484 L464.46630859375,119.9302749633789 L462.8669128417969,121.07674407958984 L461.70013427734375,122.39225769042969 L461.1045227050781,123.77932739257812 L461.1569519042969,125.11653137207031 L461.908203125,126.28453063964844 L463.3553771972656,127.19473266601562 L465.4327392578125,127.80772399902344 L467.98699951171875,128.11419677734375 L470.8209228515625,128.14877319335938 L473.7060852050781,127.96742248535156 L476.44683837890625,127.58241271972656 L478.8545837402344,127.02748107910156 L480.7764892578125,126.34452056884766 L482.03900146484375,125.72805786132812 L482.68133544921875,125.30392456054688 M488.2314453125,119.09712982177734 L488.2281494140625,118.65301513671875 L488.04547119140625,117.99771881103516 L487.5155944824219,117.2842025756836 L486.4934997558594,116.7571792602539 L484.9513244628906,116.51366424560547 L483.01806640625,116.57962036132812 L480.97021484375,116.89936065673828 L479.13104248046875,117.4249496459961 L477.83721923828125,118.08433532714844 L477.329345703125,118.81245422363281 L477.69427490234375,119.57139587402344 L478.9419250488281,120.3238296508789 L480.95111083984375,121.03113555908203 L483.53448486328125,121.70484924316406 L486.4152526855469,122.36034393310547 L489.2763671875,123.02116394042969 L491.78375244140625,123.68717193603516 L493.70501708984375,124.33686065673828 L494.87384033203125,124.92300415039062 L495.2776794433594,125.42576599121094 L494.9591064453125,125.83457946777344 L494.01690673828125,126.16046905517578 L492.56829833984375,126.41427612304688 L490.75457763671875,126.61293029785156 L488.6976623535156,126.76294708251953 L486.5632019042969,126.87786865234375 L484.50360107421875,126.97259521484375 L482.6580810546875,127.05335998535156 L481.1639099121094,127.12024688720703 L480.07562255859375,127.16780853271484 L479.4588317871094,127.19917297363281 L479.3398742675781,127.22325134277344 L479.6835632324219,127.25699615478516 L480.1976013183594,127.29349517822266 L480.65521240234375,127.3248291015625 M506.77691650390625,120.17170715332031 L506.76495361328125,119.74481964111328 L506.5476989746094,119.11223602294922 L505.9609375,118.41514587402344 L504.8787841796875,117.86634826660156 L503.33636474609375,117.52774810791016 L501.48223876953125,117.430419921875 L499.5122375488281,117.5322494506836 L497.67657470703125,117.81640625 L496.1991271972656,118.25989532470703 L495.2374267578125,118.83448791503906 L494.912353515625,119.5248794555664 L495.2936096191406,120.32405090332031 L496.3480224609375,121.17874908447266 L498.0291442871094,122.04671478271484 L500.1789245605469,122.89440155029297 L502.5721435546875,123.7061538696289 L504.97027587890625,124.47931671142578 L507.1319580078125,125.2179946899414 L508.85223388671875,125.88917541503906 L510.0428466796875,126.46427917480469 L510.6648864746094,126.93233489990234 L510.73150634765625,127.29932403564453 L510.281005859375,127.5858383178711 L509.32135009765625,127.80561828613281 L507.8712463378906,127.95233917236328 L505.98712158203125,128.0145721435547 L503.77838134765625,128.01051330566406 L501.374755859375,127.95516204833984 L498.9324645996094,127.86375427246094 L496.6243896484375,127.74406433105469 L494.62030029296875,127.60160064697266 L493.0727233886719,127.4404067993164 L492.0865478515625,127.29310607910156 L491.63299560546875,127.17726135253906 L491.5325927734375,127.10453796386719 L491.5938415527344,127.07107543945312 M538.86474609375,120.69226837158203 L538.873046875,120.37386322021484 L538.8117065429688,119.89053344726562 L538.5810546875,119.33915710449219 L538.0826416015625,118.88021087646484 L537.2662353515625,118.59711456298828 L536.1015014648438,118.55441284179688 L534.6218872070312,118.81102752685547 L532.9249267578125,119.41116333007812 L531.1649169921875,120.35099792480469 L529.5463256835938,121.5634536743164 L528.3009033203125,122.96075439453125 L527.6143188476562,124.42250061035156 L527.6140747070312,125.85147857666016 L528.316162109375,127.11737060546875 L529.6839599609375,128.11813354492188 L531.5975952148438,128.78038024902344 L533.9036254882812,129.0738983154297 L536.4149780273438,129.00698852539062 L538.93994140625,128.63633728027344 L541.2676391601562,127.96533203125 L543.2426147460938,127.06473541259766 L544.7573852539062,126.0414810180664 L545.71826171875,125.17088317871094 L546.1893920898438,124.61038970947266 M546.265625,120.63380432128906 L546.1875,120.4726333618164 L546.073974609375,120.33918762207031 L545.9420166015625,120.36184692382812 L545.8199462890625,120.69686889648438 L545.6848754882812,121.35984802246094 L545.556396484375,122.31214904785156 L545.491455078125,123.45877838134766 L545.5936279296875,124.70720672607422 L545.9680786132812,125.91799926757812 L546.7001342773438,126.96369171142578 L547.803955078125,127.70230865478516 L549.2371215820312,128.044921875 L550.9149169921875,127.95147705078125 L552.7310180664062,127.43865966796875 L554.5322265625,126.55963134765625 L556.1726684570312,125.39126586914062 L557.54541015625,124.0423812866211 L558.572998046875,122.68830871582031 L559.236083984375,121.50619506835938 L559.605712890625,120.62191772460938 L559.74462890625,120.09380340576172 L559.7199096679688,119.91815185546875 L559.607421875,120.09465026855469 L559.4472045898438,120.6526870727539 L559.2672119140625,121.5944595336914 L559.150634765625,122.83892059326172 L559.131591796875,124.21212768554688 L559.264892578125,125.51697540283203 L559.578125,126.59417724609375 L560.0184936523438,127.37025451660156 L560.542724609375,127.79904174804688 L561.0953369140625,127.88546752929688 L561.6073608398438,127.65829467773438 L561.998291015625,127.31658935546875 L562.239501953125,127.02104187011719 M564.5859985351562,120.47007751464844 L564.702392578125,120.23221588134766 L564.8502197265625,119.94830322265625 L564.9869384765625,119.76048278808594 L565.0537109375,119.853515625 L565.0428466796875,120.28238677978516 L564.969970703125,121.05433654785156 L564.8758544921875,122.0928955078125 L564.7615966796875,123.30982208251953 L564.6710815429688,124.57130432128906 L564.6109008789062,125.74190521240234 L564.5711059570312,126.7054214477539 L564.55615234375,127.38455963134766 L564.5520629882812,127.70999908447266 L564.5557861328125,127.65536499023438 L564.6258544921875,127.20979309082031 L564.7960205078125,126.4074478149414 L565.10009765625,125.33475494384766 L565.5899658203125,124.11407470703125 L566.2494506835938,122.86307525634766 L567.072998046875,121.70063781738281 L568.0469970703125,120.7128677368164 L569.1328735351562,119.97454071044922 L570.2900390625,119.54790496826172 L571.496826171875,119.47297668457031 L572.6954956054688,119.74952697753906 L573.8446655273438,120.35150146484375 L574.88720703125,121.20989990234375 L575.7620239257812,122.25824737548828 L576.4551391601562,123.43994903564453 L576.9464721679688,124.69557189941406 L577.2280883789062,125.94815826416016 L577.3319091796875,127.11270141601562 L577.2981567382812,128.0875701904297 L577.1942138671875,128.80096435546875 L577.17041015625,129.1808319091797 L577.2966918945312,129.20135498046875 L577.5941162109375,128.88926696777344 L577.9359741210938,128.4678497314453 L578.1975708007812,128.11741638183594 M586.5505981445312,108.89384460449219 L586.5501708984375,108.73004913330078 L586.5591430664062,108.60944366455078 L586.5689086914062,108.70834350585938 L586.567626953125,109.22613525390625 L586.524658203125,110.2332534790039 L586.4169921875,111.7060775756836 L586.236572265625,113.55941009521484 L586.0086059570312,115.7047119140625 L585.757080078125,118.02748107910156 L585.5127563476562,120.40669250488281 L585.2890014648438,122.69857025146484 L585.0757446289062,124.74163818359375 L584.8695068359375,126.38695526123047 L584.68017578125,127.55467987060547 L584.535888671875,128.22825622558594 L584.4505615234375,128.51783752441406 M580.0618896484375,122.51811218261719 L579.7254638671875,122.0931396484375 L579.400390625,121.4972915649414 L579.3349609375,120.86393737792969 L579.8182373046875,120.3779296875 L580.9068603515625,120.0556411743164 L582.544189453125,119.8995132446289 L584.6508178710938,119.89022827148438 L587.0814819335938,120.03704071044922 L589.606201171875,120.30235290527344 L591.6485595703125,120.56410217285156 L592.922119140625,120.75025177001953 M635.0015258789062,116.38789367675781 L634.9832763671875,116.2823257446289 L634.9404296875,116.19005584716797 L634.826416015625,116.19094848632812 L634.5692138671875,116.37053680419922 L634.0546264648438,116.74365997314453 L633.1889038085938,117.30436706542969 L631.9093017578125,118.04106140136719 L630.2237548828125,118.95201110839844 L628.1994018554688,120.01827239990234 L625.98095703125,121.22122192382812 L623.74560546875,122.54862213134766 L621.6967163085938,123.96818542480469 L620.0179443359375,125.45109558105469 L618.85009765625,126.9525146484375 L618.2796020507812,128.40875244140625 L618.341064453125,129.77047729492188 L619.0369873046875,130.98687744140625 L620.3387451171875,131.9919891357422 L622.1959228515625,132.72898864746094 L624.50048828125,133.14846801757812 L627.1089477539062,133.20571899414062 L629.8172607421875,132.8980255126953 L632.402587890625,132.21871948242188 L634.67626953125,131.1747283935547 L636.5242919921875,129.7706756591797 L637.8665771484375,128.0206298828125 L638.697021484375,125.95396423339844 L639.03125,123.66272735595703 L638.89404296875,121.27023315429688 L638.374755859375,118.94639587402344 L637.5980224609375,116.84123992919922 L636.5430908203125,115.0358657836914 L635.5560302734375,113.7486572265625 L634.8428955078125,113.01481628417969 " fill="none" stroke="black" stroke-linecap="round" stroke-width="0.5" /></svg>